<svg xmlns="http://www.w3.org/2000/svg" viewBox="0 0 500 500"><g id="freepik--background-complete--inject-18"><rect y="382.4" width="500" height="0.25" style="fill:#ebebeb"></rect><rect x="416.78" y="398.49" width="33.12" height="0.25" style="fill:#ebebeb"></rect><rect x="322.53" y="401.21" width="8.69" height="0.25" style="fill:#ebebeb"></rect><rect x="396.59" y="389.21" width="19.19" height="0.25" style="fill:#ebebeb"></rect><rect x="52.46" y="390.89" width="43.19" height="0.25" style="fill:#ebebeb"></rect><rect x="104.56" y="390.89" width="6.33" height="0.25" style="fill:#ebebeb"></rect><rect x="131.47" y="395.11" width="93.68" height="0.25" style="fill:#ebebeb"></rect><path d="M237,337.8H43.91a5.71,5.71,0,0,1-5.7-5.71V60.66A5.71,5.71,0,0,1,43.91,55H237a5.71,5.71,0,0,1,5.71,5.71V332.09A5.71,5.71,0,0,1,237,337.8ZM43.91,55.2a5.46,5.46,0,0,0-5.45,5.46V332.09a5.46,5.46,0,0,0,5.45,5.46H237a5.47,5.47,0,0,0,5.46-5.46V60.66A5.47,5.47,0,0,0,237,55.2Z" style="fill:#ebebeb"></path><path d="M453.31,337.8H260.21a5.72,5.72,0,0,1-5.71-5.71V60.66A5.72,5.72,0,0,1,260.21,55h193.1A5.71,5.71,0,0,1,459,60.66V332.09A5.71,5.71,0,0,1,453.31,337.8ZM260.21,55.2a5.47,5.47,0,0,0-5.46,5.46V332.09a5.47,5.47,0,0,0,5.46,5.46h193.1a5.47,5.47,0,0,0,5.46-5.46V60.66a5.47,5.47,0,0,0-5.46-5.46Z" style="fill:#ebebeb"></path><polygon points="306.92 304.77 315.35 304.77 320.92 304.77 305.33 317.67 302.47 317.67 299.92 317.67 303.56 312.14 292.94 317.67 290.38 317.67 287.36 317.67 306.92 304.77" style="fill:#e0e0e0"></polygon><polygon points="417.41 317.67 411.82 317.67 399.43 311.22 404.84 317.67 399.43 317.67 383.85 304.77 397.84 304.77 417.41 317.67" style="fill:#e0e0e0"></polygon><polygon points="402.3 317.67 389.41 304.77 397.84 304.77 417.41 317.67 414.38 317.67 399.43 309.44 404.84 317.67 402.3 317.67" style="fill:#f0f0f0"></polygon><path d="M257.47,317.66v61.19H445.89V317.66Zm3.08,4H411.82v20H260.55Z" style="fill:#e0e0e0"></path><path d="M257.47,317.66v61.19H415.94V317.66Zm3.08,4H411.82v20H260.55Z" style="fill:#ebebeb"></path><rect x="260.55" y="321.63" width="27.58" height="19.99" transform="translate(548.68 663.26) rotate(180)" style="fill:#e0e0e0"></rect><rect x="371.88" y="331.63" width="39.94" height="10" transform="translate(783.71 673.26) rotate(180)" style="fill:#e0e0e0"></rect><rect x="343.68" y="335.69" width="25.69" height="5.94" transform="translate(713.05 677.31) rotate(180)" style="fill:#e0e0e0"></rect><rect x="307.45" y="329.48" width="30.29" height="12.15" transform="translate(645.19 671.11) rotate(180)" style="fill:#e0e0e0"></rect><polygon points="381.75 345.98 382.49 348.37 392.31 348.37 393.04 345.98 411.82 345.98 411.82 372.52 362.97 372.52 362.97 345.98 381.75 345.98" style="fill:#e0e0e0"></polygon><polygon points="330.61 345.98 331.34 348.37 341.16 348.37 341.89 345.98 360.68 345.98 360.68 372.52 311.82 372.52 311.82 345.98 330.61 345.98" style="fill:#e0e0e0"></polygon><polygon points="279.46 345.98 280.19 348.37 290.02 348.37 290.75 345.98 309.53 345.98 309.53 372.52 260.68 372.52 260.68 345.98 279.46 345.98" style="fill:#e0e0e0"></polygon><rect x="287.13" y="223.78" width="136.85" height="82.69" rx="3.53" transform="translate(711.11 530.26) rotate(180)" style="fill:#e0e0e0"></rect><rect x="283.91" y="223.78" width="136.85" height="82.69" rx="3.53" transform="translate(704.68 530.26) rotate(180)" style="fill:#e6e6e6"></rect><rect x="315.01" y="200.72" width="74.65" height="128.81" transform="translate(617.47 -87.21) rotate(90)" style="fill:#f0f0f0"></rect><circle cx="354.49" cy="112.58" r="18.94" transform="translate(163.48 431.72) rotate(-76.72)" style="fill:#e0e0e0"></circle><circle cx="354.49" cy="112.58" r="16.1" transform="translate(176.91 439.39) rotate(-79.1)" style="fill:#f0f0f0"></circle><polyline points="353.73 101.53 353.73 112.79 346.27 108.57" style="fill:#f0f0f0"></polyline><path d="M353.73,113.79a1,1,0,0,1-.49-.13l-7.46-4.22a1,1,0,0,1-.38-1.36,1,1,0,0,1,1.37-.38l6,3.38v-9.55a1,1,0,1,1,2,0v11.26a1,1,0,0,1-.49.86A.94.94,0,0,1,353.73,113.79Z" style="fill:#e0e0e0"></path><path d="M78,128.21s-.92-6,3.48-9.88,4-6.17,2.75-6.47-2.42,3.57-4.35,4.63c0,0-.06-5.5,1.9-7.53s3-7.26,1.13-7.35-2.06,3.11-2.45,5.37A18.83,18.83,0,0,1,78,112.43s-.41-4.92-1.68-7,2.11-6.66.81-8.69-3.62,1.83-3.43,6.18,3.09,9,2.42,13.52c0,0-1.28-3.19-2.43-3.48s-2.31-2.39-3.08-3.18-1.74,1.93,0,4.44,6.18,9.23,5.51,14.66Z" style="fill:#e6e6e6"></path><path d="M80.66,125.47l1.44,9a4.59,4.59,0,0,1-4.53,5.32H76a4.59,4.59,0,0,1-4.53-5.32l1.44-9Z" style="fill:#e6e6e6"></path><rect x="58.9" y="136.48" width="101.72" height="5.23" transform="translate(219.52 278.2) rotate(180)" style="fill:#e0e0e0"></rect><rect x="151.45" y="117.22" width="4.48" height="19.27" transform="translate(307.39 253.7) rotate(180)" style="fill:#ebebeb"></rect><rect x="129.79" y="117.22" width="4.48" height="19.27" transform="translate(264.05 253.7) rotate(180)" style="fill:#ebebeb"></rect><rect x="103.52" y="116.98" width="4.48" height="19.27" transform="translate(188.48 269.35) rotate(-170.22)" style="fill:#ebebeb"></rect><rect x="145.9" y="119.76" width="4.48" height="16.73" transform="translate(296.29 256.24) rotate(180)" style="fill:#ebebeb"></rect><rect x="135.6" y="119.76" width="4.48" height="16.73" transform="translate(275.68 256.24) rotate(180)" style="fill:#ebebeb"></rect><rect x="109.6" y="119.76" width="4.48" height="16.73" transform="translate(223.69 256.24) rotate(180)" style="fill:#ebebeb"></rect><rect x="122.03" y="119.47" width="4.48" height="16.73" transform="translate(217.86 279.58) rotate(-167.47)" style="fill:#ebebeb"></rect><rect x="142.03" y="116.26" width="2.24" height="20.22" transform="translate(286.29 252.75) rotate(180)" style="fill:#ebebeb"></rect><rect x="115.37" y="116.26" width="2.24" height="20.22" transform="translate(232.98 252.75) rotate(180)" style="fill:#ebebeb"></rect><rect x="58.9" y="175.5" width="101.72" height="5.23" style="fill:#e0e0e0"></rect><rect x="63.58" y="156.24" width="4.48" height="19.27" style="fill:#ebebeb"></rect><rect x="85.25" y="156.24" width="4.48" height="19.27" style="fill:#ebebeb"></rect><rect x="111.52" y="156" width="4.48" height="19.27" transform="translate(-26.48 21.73) rotate(-9.78)" style="fill:#ebebeb"></rect><rect x="69.13" y="158.78" width="4.48" height="16.73" style="fill:#ebebeb"></rect><rect x="79.43" y="158.78" width="4.48" height="16.73" style="fill:#ebebeb"></rect><rect x="105.43" y="158.78" width="4.48" height="16.73" style="fill:#ebebeb"></rect><rect x="93" y="158.49" width="4.48" height="16.73" transform="translate(-33.92 24.63) rotate(-12.53)" style="fill:#ebebeb"></rect><rect x="75.25" y="155.28" width="2.24" height="20.22" style="fill:#ebebeb"></rect><rect x="101.9" y="155.28" width="2.24" height="20.22" style="fill:#ebebeb"></rect><rect x="129.02" y="160.25" width="21.84" height="15.07" style="fill:#ebebeb"></rect></g><g id="freepik--Shadow--inject-18"><ellipse id="freepik--path--inject-18" cx="250" cy="416.24" rx="193.89" ry="11.32" style="fill:#f5f5f5"></ellipse></g><g id="freepik--envelopes-2--inject-18"><rect x="95.51" y="357.1" width="46.11" height="27.1" rx="1.19" transform="translate(20.97 -6.07) rotate(3.21)" style="fill:#263238"></rect><rect x="95.51" y="357.1" width="46.11" height="27.1" rx="1.19" transform="translate(20.97 -6.07) rotate(3.21)" style="fill:#fff;opacity:0.5;isolation:isolate"></rect><path d="M124.4,372.41l-1.36-1,1.46-.85c1.9-1.11,3.82-2.2,5.7-3.34l5.67-3.39c1.86-1.17,3.75-2.3,5.61-3.49-2,1-3.9,2.05-5.85,3.08l-5.79,3.16c-1.94,1.05-3.85,2.15-5.76,3.22l-1.82,1-.86.5-.2.1-1.44.81a2.27,2.27,0,0,1-1.3.36,2.23,2.23,0,0,1-1.27-.5l-1.33-1-.18-.12-.8-.59-1.7-1.22c-1.79-1.28-3.55-2.59-5.37-3.84q-5.39-3.82-10.86-7.51c3.43,2.76,6.93,5.43,10.44,8.1,1.74,1.34,3.51,2.64,5.28,3.95l1.35,1-1.46.85c-1.9,1.11-3.82,2.19-5.69,3.34l-5.66,3.39c-1.88,1.16-3.76,2.3-5.61,3.48,2-1,3.89-2,5.84-3.07l5.8-3.17c1.93-1,3.83-2.15,5.76-3.22l1.82-1,.5.38,1.32,1a3,3,0,0,0,3.59.2l1.42-.83.55-.31,1.69,1.21c1.79,1.28,3.56,2.6,5.36,3.85,3.6,2.53,7.2,5.06,10.87,7.51-3.43-2.76-6.93-5.44-10.43-8.1C128,375,126.16,373.72,124.4,372.41Z" style="opacity:0.2;isolation:isolate"></path><rect x="290.43" y="303.36" width="46.11" height="27.1" rx="1.19" transform="translate(152.02 -98.58) rotate(23.45)" style="fill:#263238"></rect><rect x="290.43" y="303.36" width="46.11" height="27.1" rx="1.19" transform="translate(152.02 -98.58) rotate(23.45)" style="fill:#fff;opacity:0.5;isolation:isolate"></rect><path d="M318.36,320.57l-.93-1.41,1.67-.3c2.17-.38,4.34-.74,6.5-1.16l6.49-1.22c2.16-.46,4.32-.86,6.47-1.33-2.18.26-4.36.57-6.55.86l-6.53,1c-2.18.32-4.35.69-6.52,1l-2.06.32-1,.17-.23,0-1.63.26a2.13,2.13,0,0,1-2.36-1l-.91-1.37-.13-.18-.55-.83L309,313.66c-1.24-1.82-2.44-3.66-3.71-5.46-2.49-3.63-5-7.24-7.59-10.8,2.27,3.77,4.62,7.49,7,11.21,1.17,1.86,2.39,3.69,3.59,5.53l.92,1.42-1.67.29c-2.16.38-4.33.73-6.49,1.16l-6.49,1.23c-2.16.44-4.32.85-6.47,1.33,2.19-.27,4.37-.58,6.55-.87l6.54-1c2.17-.3,4.34-.69,6.51-1l2.06-.33.35.52.9,1.38a3,3,0,0,0,1.41,1.27,3.06,3.06,0,0,0,1.88.16l1.63-.28.61-.11,1.17,1.73c1.24,1.81,2.44,3.66,3.71,5.46,2.5,3.62,5,7.24,7.6,10.8-2.27-3.77-4.63-7.49-7-11.2C320.79,324.24,319.56,322.41,318.36,320.57Z" style="opacity:0.2;isolation:isolate"></path><rect x="251.07" y="309.47" width="46.11" height="27.1" rx="1.19" transform="translate(-46.31 45.87) rotate(-8.82)" style="fill:#263238"></rect><rect x="251.07" y="309.47" width="46.11" height="27.1" rx="1.19" transform="translate(-46.31 45.87) rotate(-8.82)" style="fill:#fff;opacity:0.5;isolation:isolate"></rect><path d="M280.19,323.51l-1.53-.7,1.25-1.14c1.63-1.48,3.27-2.94,4.88-4.45l4.83-4.5c1.58-1.53,3.19-3,4.76-4.58-1.71,1.39-3.38,2.82-5.08,4.23l-5,4.3c-1.68,1.43-3.31,2.9-5,4.36l-1.57,1.37-.74.67-.17.14-1.24,1.09a2.18,2.18,0,0,1-1.2.62,2.22,2.22,0,0,1-1.34-.22l-1.51-.67-.2-.08-.91-.42-1.91-.83c-2-.88-4-1.79-6.05-2.64-4-1.74-8.1-3.45-12.19-5.08,3.93,2,7.91,3.87,11.89,5.75,2,.95,4,1.84,6,2.76l1.54.71-1.25,1.13c-1.63,1.48-3.28,2.94-4.87,4.45l-4.83,4.5c-1.59,1.53-3.2,3-4.76,4.58,1.71-1.39,3.38-2.82,5.07-4.23l5-4.31c1.67-1.42,3.3-2.9,5-4.34l1.57-1.38.57.26,1.5.69a3,3,0,0,0,3.55-.55l1.22-1.11.47-.42,1.9.83c2,.88,4,1.8,6.05,2.64,4.05,1.73,8.1,3.45,12.2,5.08-3.94-2-7.91-3.87-11.9-5.74C284.21,325.33,282.19,324.43,280.19,323.51Z" style="opacity:0.2;isolation:isolate"></path><rect x="146.04" y="309.47" width="46.11" height="27.1" rx="1.19" transform="translate(116.18 -37.72) rotate(19.29)" style="fill:#263238"></rect><rect x="146.04" y="309.47" width="46.11" height="27.1" rx="1.19" transform="translate(116.18 -37.72) rotate(19.29)" style="fill:#fff;opacity:0.5;isolation:isolate"></rect><path d="M174.22,326.32l-1-1.35,1.65-.41c2.13-.54,4.27-1.06,6.4-1.63l6.38-1.69c2.11-.61,4.24-1.17,6.36-1.8-2.16.42-4.31.89-6.47,1.34l-6.45,1.43c-2.15.47-4.28,1-6.43,1.51l-2,.47-1,.24-.22.05-1.61.37a2.15,2.15,0,0,1-1.35,0,2.18,2.18,0,0,1-1.07-.83l-1-1.3-.14-.17-.6-.79-1.29-1.64c-1.37-1.73-2.7-3.47-4.1-5.18-2.75-3.44-5.52-6.85-8.36-10.22,2.54,3.6,5.16,7.14,7.79,10.67,1.3,1.77,2.65,3.51,4,5.26l1,1.35-1.64.41c-2.13.54-4.27,1.05-6.39,1.63l-6.38,1.69c-2.12.6-4.25,1.17-6.36,1.8,2.16-.42,4.31-.89,6.47-1.34l6.45-1.44c2.14-.46,4.27-1,6.42-1.5l2-.47.38.5,1,1.31a3,3,0,0,0,3.39,1.18l1.6-.4.61-.15,1.29,1.64c1.36,1.72,2.7,3.47,4.09,5.17,2.76,3.44,5.51,6.86,8.37,10.23-2.54-3.6-5.16-7.14-7.79-10.67C176.91,329.81,175.55,328.07,174.22,326.32Z" style="opacity:0.2;isolation:isolate"></path><rect x="142.34" y="364.43" width="46.11" height="27.1" rx="1.19" transform="matrix(0.94, 0.33, -0.33, 0.94, 134.13, -33.42)" style="fill:#263238"></rect><rect x="142.34" y="364.43" width="46.11" height="27.1" rx="1.19" transform="matrix(0.94, 0.33, -0.33, 0.94, 134.13, -33.42)" style="fill:#fff;opacity:0.5;isolation:isolate"></rect><path d="M170.52,381.28l-1-1.34,1.65-.42c2.13-.54,4.27-1,6.4-1.62l6.38-1.7c2.12-.6,4.25-1.16,6.36-1.79-2.16.42-4.31.89-6.47,1.34l-6.45,1.43c-2.14.47-4.28,1-6.42,1.5l-2,.48-1,.24-.21,0-1.61.38a2.14,2.14,0,0,1-2.43-.85l-1-1.3-.15-.17-.6-.78-1.29-1.64c-1.37-1.73-2.7-3.48-4.1-5.18-2.74-3.44-5.52-6.86-8.36-10.22,2.54,3.6,5.16,7.14,7.79,10.67,1.3,1.77,2.65,3.51,4,5.26l1,1.35-1.64.41c-2.13.53-4.27,1-6.39,1.63l-6.38,1.69c-2.12.59-4.25,1.17-6.36,1.79,2.16-.41,4.31-.89,6.47-1.34l6.45-1.43c2.14-.47,4.28-1,6.42-1.5l2-.48.38.5,1,1.31a3.12,3.12,0,0,0,1.5,1.16,3.06,3.06,0,0,0,1.89,0l1.6-.4.61-.15,1.29,1.63c1.36,1.72,2.7,3.48,4.09,5.18,2.76,3.43,5.52,6.86,8.37,10.22-2.54-3.6-5.16-7.13-7.79-10.67C173.21,384.77,171.85,383,170.52,381.28Z" style="opacity:0.2;isolation:isolate"></path><rect x="292.56" y="323.93" width="46.11" height="27.1" rx="1.19" transform="translate(-115.55 171.34) rotate(-25.84)" style="fill:#263238"></rect><rect x="292.56" y="323.93" width="46.11" height="27.1" rx="1.19" transform="translate(-115.55 171.34) rotate(-25.84)" style="fill:#fff;opacity:0.5;isolation:isolate"></rect><path d="M321.57,336.18l-1.68-.22.87-1.46c1.12-1.89,2.27-3.77,3.36-5.68l3.3-5.72c1.07-1.93,2.17-3.83,3.22-5.77-1.23,1.83-2.41,3.68-3.62,5.53l-3.53,5.57c-1.18,1.86-2.32,3.75-3.47,5.62l-1.09,1.78-.51.85-.13.18-.86,1.41a2.22,2.22,0,0,1-1,1,2.17,2.17,0,0,1-1.35.17l-1.63-.19-.22,0-1-.13-2.07-.24c-2.19-.25-4.37-.54-6.56-.75-4.37-.48-8.75-.93-13.14-1.29,4.34.74,8.69,1.38,13.05,2,2.18.33,4.36.6,6.54.89l1.68.23-.87,1.45c-1.12,1.89-2.27,3.76-3.35,5.68l-3.31,5.72c-1.07,1.92-2.16,3.83-3.21,5.77,1.23-1.83,2.41-3.69,3.62-5.53l3.52-5.59c1.19-1.85,2.31-3.74,3.48-5.61l1.09-1.77.62.08,1.64.22a3.25,3.25,0,0,0,1.88-.24,3.1,3.1,0,0,0,1.35-1.33l.84-1.41.33-.54,2.07.24c2.18.25,4.37.53,6.55.75,4.38.47,8.75.93,13.15,1.29-4.34-.75-8.7-1.39-13.06-2C325.94,336.74,323.75,336.47,321.57,336.18Z" style="opacity:0.2;isolation:isolate"></path><rect x="285.56" y="364.92" width="46.11" height="27.1" rx="1.19" transform="translate(-134.12 172.39) rotate(-25.84)" style="fill:#263238"></rect><rect x="285.56" y="364.92" width="46.11" height="27.1" rx="1.19" transform="translate(-134.12 172.39) rotate(-25.84)" style="fill:#fff;opacity:0.5;isolation:isolate"></rect><path d="M314.57,377.17l-1.68-.22.87-1.46c1.12-1.89,2.27-3.78,3.36-5.68l3.3-5.72c1.06-1.93,2.17-3.83,3.22-5.77-1.23,1.82-2.41,3.68-3.62,5.53l-3.53,5.57c-1.18,1.86-2.32,3.75-3.47,5.62l-1.1,1.77-.51.85-.12.19-.87,1.41a2.13,2.13,0,0,1-1,.94,2.17,2.17,0,0,1-1.35.18l-1.63-.2-.22,0-1-.12-2.07-.24c-2.19-.26-4.37-.54-6.56-.75-4.38-.49-8.75-.93-13.14-1.29,4.34.74,8.69,1.38,13.05,2,2.18.32,4.36.59,6.54.89l1.68.22-.87,1.45c-1.12,1.9-2.27,3.77-3.35,5.68l-3.31,5.72c-1.07,1.92-2.16,3.83-3.21,5.77,1.23-1.82,2.41-3.68,3.62-5.53l3.52-5.58c1.19-1.85,2.31-3.74,3.48-5.61l1.09-1.77.62.08,1.64.21a3.1,3.1,0,0,0,1.88-.24,3.13,3.13,0,0,0,1.35-1.32l.84-1.42.33-.54,2.06.24c2.19.25,4.37.54,6.56.76,4.38.47,8.75.93,13.15,1.28-4.34-.74-8.7-1.38-13.06-2C318.94,377.72,316.75,377.46,314.57,377.17Z" style="opacity:0.2;isolation:isolate"></path><rect x="223.4" y="327.16" width="46.11" height="27.1" rx="1.19" transform="translate(122.4 -61.08) rotate(18.72)" style="fill:#263238"></rect><rect x="223.4" y="327.16" width="46.11" height="27.1" rx="1.19" transform="translate(122.4 -61.08) rotate(18.72)" style="fill:#fff;opacity:0.5;isolation:isolate"></rect><path d="M251.61,344l-1-1.33,1.64-.43c2.12-.56,4.26-1.1,6.38-1.69l6.37-1.76c2.1-.62,4.23-1.21,6.33-1.85-2.15.44-4.3.93-6.45,1.4l-6.43,1.49c-2.15.5-4.28,1-6.41,1.57l-2,.5-1,.24-.22.05-1.6.4a2.22,2.22,0,0,1-1.35,0,2.11,2.11,0,0,1-1.09-.82l-1-1.29-.15-.17-.61-.78-1.31-1.62c-1.38-1.72-2.73-3.45-4.15-5.14q-4.15-5.11-8.45-10.14c2.57,3.58,5.22,7.09,7.89,10.59,1.32,1.76,2.68,3.49,4,5.22l1,1.34-1.64.43c-2.13.56-4.26,1.09-6.37,1.69l-6.37,1.76c-2.12.61-4.23,1.21-6.34,1.85,2.16-.43,4.3-.93,6.46-1.4l6.43-1.5c2.14-.49,4.27-1.05,6.41-1.56l2-.49.39.49,1,1.3a3,3,0,0,0,3.4,1.15L249,343l.61-.16,1.3,1.62c1.38,1.71,2.74,3.45,4.14,5.14,2.79,3.4,5.59,6.8,8.47,10.14-2.57-3.58-5.23-7.09-7.89-10.59C254.33,347.42,253,345.69,251.61,344Z" style="opacity:0.2;isolation:isolate"></path><rect x="235.17" y="363" width="46.11" height="27.1" rx="1.19" transform="translate(134.53 -62.96) rotate(18.72)" style="fill:#263238"></rect><rect x="235.17" y="363" width="46.11" height="27.1" rx="1.19" transform="translate(134.53 -62.96) rotate(18.72)" style="fill:#fff;opacity:0.5;isolation:isolate"></rect><path d="M263.38,379.8l-1-1.33L264,378c2.13-.56,4.27-1.1,6.38-1.69l6.37-1.76c2.11-.63,4.23-1.21,6.34-1.86-2.16.44-4.3.94-6.46,1.41l-6.43,1.49c-2.14.49-4.27,1-6.41,1.57l-2,.49-1,.25-.21.05-1.61.39a2.12,2.12,0,0,1-2.43-.82l-1-1.29-.15-.17-.61-.78-1.3-1.62c-1.39-1.72-2.74-3.45-4.15-5.14-2.78-3.41-5.59-6.81-8.46-10.14,2.57,3.57,5.22,7.09,7.89,10.59,1.32,1.76,2.68,3.48,4,5.22l1,1.34-1.64.43c-2.12.56-4.26,1.08-6.37,1.69l-6.37,1.76c-2.11.61-4.23,1.2-6.34,1.85,2.16-.44,4.3-.93,6.46-1.4l6.43-1.5c2.14-.49,4.27-1,6.41-1.56l2-.5.38.5,1,1.3a3.16,3.16,0,0,0,1.51,1.14,3.08,3.08,0,0,0,1.9,0l1.59-.42.61-.15,1.31,1.62c1.37,1.71,2.73,3.45,4.14,5.13,2.79,3.41,5.58,6.81,8.46,10.15-2.57-3.58-5.22-7.09-7.89-10.6C266.1,383.27,264.73,381.54,263.38,379.8Z" style="opacity:0.2;isolation:isolate"></path><rect x="199.74" y="307.46" width="46.11" height="27.1" rx="1.19" transform="translate(-86.27 81.92) rotate(-17.51)" style="fill:#263238"></rect><rect x="199.74" y="307.46" width="46.11" height="27.1" rx="1.19" transform="translate(-86.27 81.92) rotate(-17.51)" style="fill:#fff;opacity:0.5;isolation:isolate"></rect><path d="M228.87,320.59l-1.63-.46,1.07-1.32c1.38-1.71,2.79-3.41,4.15-5.14l4.1-5.18c1.33-1.75,2.7-3.47,4-5.24-1.48,1.63-2.92,3.29-4.38,4.95l-4.3,5c-1.44,1.67-2.83,3.37-4.24,5.06l-1.34,1.59-.63.77-.15.17-1.06,1.27a2.29,2.29,0,0,1-1.1.79,2.15,2.15,0,0,1-1.35,0l-1.59-.43-.22,0-1-.27-2-.54c-2.13-.57-4.24-1.16-6.38-1.69-4.26-1.11-8.53-2.19-12.82-3.18,4.19,1.36,8.4,2.63,12.63,3.88,2.1.64,4.22,1.22,6.33,1.83l1.63.46-1.07,1.31c-1.38,1.71-2.79,3.4-4.14,5.14l-4.09,5.18c-1.35,1.74-2.7,3.47-4,5.24,1.48-1.63,2.92-3.29,4.38-4.95l4.3-5c1.44-1.66,2.83-3.37,4.25-5.05l1.34-1.59.6.17,1.59.45a3.12,3.12,0,0,0,1.89,0,3.06,3.06,0,0,0,1.53-1.11l1-1.28.4-.49,2,.54c2.12.56,4.25,1.16,6.38,1.69,4.26,1.1,8.52,2.19,12.82,3.18-4.18-1.36-8.4-2.63-12.62-3.88C233.11,321.77,231,321.19,228.87,320.59Z" style="opacity:0.2;isolation:isolate"></path><rect x="198.25" y="340.09" width="46.11" height="27.1" rx="1.19" transform="translate(-16.59 10.94) rotate(-2.73)" style="fill:#263238"></rect><rect x="198.25" y="340.09" width="46.11" height="27.1" rx="1.19" transform="translate(-16.59 10.94) rotate(-2.73)" style="fill:#fff;opacity:0.5;isolation:isolate"></rect><path d="M227.29,354.77l-1.46-.85,1.37-1c1.77-1.3,3.57-2.58,5.32-3.9l5.28-4c1.74-1.35,3.5-2.67,5.22-4-1.84,1.19-3.66,2.44-5.49,3.66l-5.44,3.74c-1.81,1.25-3.6,2.54-5.39,3.81l-1.71,1.2-.8.58-.19.13-1.35.95a2.12,2.12,0,0,1-2.56.12l-1.43-.82-.2-.1-.85-.51-1.81-1c-1.92-1.09-3.81-2.21-5.74-3.27-3.84-2.16-7.69-4.29-11.58-6.34,3.7,2.39,7.45,4.69,11.21,7,1.88,1.16,3.78,2.26,5.66,3.39l1.46.87-1.37,1c-1.77,1.3-3.57,2.57-5.31,3.91l-5.28,4c-1.75,1.34-3.5,2.67-5.22,4,1.84-1.19,3.66-2.44,5.49-3.66l5.44-3.75c1.82-1.24,3.59-2.54,5.4-3.8l1.7-1.2.54.32,1.42.84a3,3,0,0,0,3.59-.17l1.33-1,.5-.37,1.81,1c1.91,1.09,3.81,2.21,5.74,3.27,3.84,2.15,7.68,4.29,11.58,6.34-3.7-2.39-7.45-4.68-11.21-7C231.09,357,229.18,355.9,227.29,354.77Z" style="opacity:0.2;isolation:isolate"></path><rect x="192.2" y="364.92" width="46.11" height="27.1" rx="1.19" transform="translate(-17.78 10.68) rotate(-2.73)" style="fill:#263238"></rect><rect x="192.2" y="364.92" width="46.11" height="27.1" rx="1.19" transform="translate(-17.78 10.68) rotate(-2.73)" style="fill:#fff;opacity:0.5;isolation:isolate"></rect><path d="M221.24,379.61l-1.46-.86,1.37-1c1.77-1.3,3.57-2.58,5.32-3.91l5.29-4c1.73-1.36,3.49-2.68,5.22-4.05-1.85,1.2-3.67,2.44-5.5,3.67L226,373.24c-1.81,1.24-3.6,2.53-5.39,3.8l-1.7,1.2-.81.59L218,379l-1.36.95A2.14,2.14,0,0,1,214,380l-1.43-.83-.19-.1-.86-.5-1.81-1c-1.92-1.09-3.81-2.21-5.74-3.26-3.84-2.16-7.69-4.29-11.58-6.35,3.7,2.39,7.45,4.69,11.22,7,1.87,1.15,3.77,2.26,5.66,3.38l1.45.87-1.36,1c-1.78,1.3-3.57,2.57-5.32,3.91l-5.28,4c-1.74,1.35-3.5,2.67-5.22,4,1.85-1.2,3.66-2.44,5.5-3.67l5.43-3.75c1.82-1.23,3.59-2.53,5.4-3.8l1.7-1.2.54.32,1.42.84a3,3,0,0,0,3.59-.17l1.33-1,.51-.37,1.81,1c1.9,1.09,3.8,2.21,5.73,3.27,3.84,2.15,7.68,4.29,11.59,6.34-3.7-2.38-7.46-4.68-11.22-7C225,381.84,223.13,380.73,221.24,379.61Z" style="opacity:0.2;isolation:isolate"></path><rect x="333.65" y="328.7" width="46.11" height="27.1" rx="1.19" transform="translate(128.73 -96.39) rotate(18.72)" style="fill:#263238"></rect><rect x="333.65" y="328.7" width="46.11" height="27.1" rx="1.19" transform="translate(128.73 -96.39) rotate(18.72)" style="fill:#fff;opacity:0.5;isolation:isolate"></rect><path d="M361.87,345.49l-1.05-1.33,1.64-.43c2.13-.56,4.27-1.1,6.39-1.69l6.36-1.76c2.11-.62,4.24-1.2,6.34-1.85-2.16.44-4.3.93-6.46,1.4l-6.42,1.49c-2.15.5-4.28,1.05-6.42,1.57l-2,.5-1,.25-.22,0-1.61.4a2.22,2.22,0,0,1-1.35,0,2.13,2.13,0,0,1-1.08-.82L354,342l-.14-.17-.61-.79-1.31-1.62c-1.38-1.72-2.74-3.45-4.15-5.14-2.78-3.41-5.58-6.8-8.46-10.14,2.57,3.58,5.23,7.09,7.89,10.59,1.32,1.76,2.69,3.49,4,5.22l1,1.35-1.63.42c-2.13.56-4.27,1.09-6.38,1.69l-6.36,1.76c-2.12.61-4.24,1.21-6.34,1.86,2.15-.44,4.3-.94,6.45-1.41l6.44-1.5c2.14-.48,4.26-1,6.41-1.56l2-.49.39.49,1,1.3a3,3,0,0,0,3.4,1.15l1.59-.41.61-.16,1.31,1.62c1.38,1.71,2.73,3.45,4.14,5.14,2.79,3.4,5.58,6.8,8.47,10.14-2.58-3.57-5.23-7.09-7.89-10.59C364.59,349,363.21,347.23,361.87,345.49Z" style="opacity:0.2;isolation:isolate"></path><rect x="362.42" y="378.27" width="46.11" height="27.1" rx="1.19" transform="translate(146.16 -103) rotate(18.72)" style="fill:#263238"></rect><rect x="362.42" y="378.27" width="46.11" height="27.1" rx="1.19" transform="translate(146.16 -103) rotate(18.72)" style="fill:#fff;opacity:0.5;isolation:isolate"></rect><path d="M390.63,395.07l-1-1.34,1.64-.43c2.12-.56,4.26-1.1,6.38-1.69l6.36-1.76c2.11-.62,4.24-1.2,6.34-1.85-2.15.44-4.3.93-6.45,1.4l-6.43,1.49c-2.15.5-4.28,1.05-6.41,1.57l-2,.5-1,.25-.22,0-1.6.4a2.25,2.25,0,0,1-1.36,0,2.13,2.13,0,0,1-1.08-.82l-1-1.28-.14-.17-.61-.79L380.68,389c-1.38-1.72-2.73-3.45-4.15-5.14-2.78-3.41-5.58-6.8-8.45-10.14,2.57,3.58,5.22,7.09,7.89,10.6,1.32,1.75,2.68,3.48,4,5.22l1,1.34-1.64.42c-2.13.56-4.26,1.09-6.38,1.69l-6.36,1.76c-2.12.61-4.23,1.21-6.34,1.86,2.16-.44,4.3-.94,6.46-1.41l6.43-1.5c2.14-.48,4.27-1,6.41-1.56l2-.49.39.49,1,1.3a3.13,3.13,0,0,0,1.51,1.15,3.21,3.21,0,0,0,1.89,0l1.6-.42.61-.16,1.3,1.62c1.38,1.71,2.74,3.45,4.14,5.14,2.79,3.41,5.58,6.8,8.47,10.14-2.57-3.57-5.23-7.09-7.89-10.59C393.35,398.53,392,396.8,390.63,395.07Z" style="opacity:0.2;isolation:isolate"></path><rect x="261.16" y="340.55" width="46.11" height="27.1" rx="1.19" transform="translate(-14.15 11.84) rotate(-2.33)" style="fill:#263238"></rect><rect x="261.16" y="340.55" width="46.11" height="27.1" rx="1.19" transform="translate(-14.15 11.84) rotate(-2.33)" style="fill:#fff;opacity:0.5;isolation:isolate"></rect><path d="M290.19,355.28l-1.45-.87,1.38-1c1.78-1.29,3.58-2.56,5.35-3.87l5.31-3.93c1.74-1.34,3.51-2.65,5.24-4-1.85,1.19-3.67,2.42-5.52,3.63l-5.46,3.7c-1.82,1.23-3.62,2.51-5.42,3.77l-1.71,1.19-.81.58-.19.12-1.35.94a2.19,2.19,0,0,1-1.27.49,2.22,2.22,0,0,1-1.3-.38l-1.42-.83-.2-.11-.85-.51-1.8-1.05c-1.91-1.1-3.79-2.23-5.72-3.3-3.82-2.19-7.66-4.35-11.54-6.43,3.69,2.42,7.43,4.74,11.17,7.06,1.87,1.16,3.76,2.28,5.64,3.42l1.45.88-1.38,1c-1.78,1.29-3.58,2.55-5.34,3.87l-5.31,3.93c-1.75,1.33-3.51,2.64-5.24,4,1.85-1.19,3.67-2.42,5.52-3.63l5.46-3.72c1.82-1.22,3.61-2.5,5.42-3.75l1.71-1.19.54.32,1.41.85a3.09,3.09,0,0,0,1.82.53,3.17,3.17,0,0,0,1.77-.67l1.34-1L288,355l1.8,1c1.9,1.1,3.79,2.24,5.71,3.31,3.83,2.18,7.66,4.34,11.55,6.42-3.69-2.41-7.42-4.73-11.17-7.05C294,357.53,292.07,356.42,290.19,355.28Z" style="opacity:0.2;isolation:isolate"></path><rect x="312.79" y="346.68" width="46.11" height="27.1" rx="1.19" transform="translate(-14.36 13.94) rotate(-2.33)" style="fill:#263238"></rect><rect x="312.79" y="346.68" width="46.11" height="27.1" rx="1.19" transform="translate(-14.36 13.94) rotate(-2.33)" style="fill:#fff;opacity:0.5;isolation:isolate"></rect><path d="M341.83,361.41l-1.45-.87,1.37-1c1.78-1.29,3.59-2.55,5.35-3.87l5.31-3.92c1.74-1.35,3.52-2.65,5.25-4-1.86,1.18-3.68,2.41-5.52,3.62l-5.47,3.71c-1.82,1.23-3.61,2.51-5.42,3.76L339.54,360l-.81.58-.18.12-1.36.95a2.22,2.22,0,0,1-1.26.48,2.16,2.16,0,0,1-1.31-.38L333.2,361l-.19-.11-.86-.51-1.8-1c-1.91-1.11-3.79-2.24-5.72-3.31-3.82-2.18-7.65-4.34-11.53-6.42,3.68,2.41,7.42,4.74,11.17,7.05,1.86,1.17,3.75,2.29,5.63,3.42l1.45.88-1.37,1c-1.78,1.29-3.59,2.55-5.34,3.87l-5.31,3.93c-1.75,1.33-3.52,2.65-5.25,4,1.85-1.18,3.68-2.42,5.52-3.63l5.46-3.71c1.83-1.22,3.61-2.51,5.43-3.76l1.71-1.19.54.32,1.41.86a3,3,0,0,0,3.59-.15l1.33-1,.52-.37,1.8,1.05c1.9,1.1,3.79,2.23,5.71,3.3,3.82,2.18,7.65,4.35,11.54,6.43-3.68-2.41-7.42-4.74-11.17-7.05C345.61,363.67,343.71,362.55,341.83,361.41Z" style="opacity:0.2;isolation:isolate"></path><rect x="315.51" y="380.18" width="46.11" height="27.1" rx="1.19" transform="translate(-15.72 14.08) rotate(-2.33)" style="fill:#263238"></rect><rect x="315.51" y="380.18" width="46.11" height="27.1" rx="1.19" transform="translate(-15.72 14.08) rotate(-2.33)" style="fill:#fff;opacity:0.5;isolation:isolate"></rect><path d="M344.54,394.9l-1.45-.86,1.37-1c1.79-1.28,3.59-2.55,5.35-3.87l5.31-3.92c1.75-1.35,3.52-2.65,5.25-4-1.85,1.18-3.67,2.41-5.52,3.63l-5.46,3.7c-1.83,1.23-3.62,2.51-5.42,3.77l-1.71,1.18-.81.58-.19.13-1.36.94a2.19,2.19,0,0,1-1.26.48,2.14,2.14,0,0,1-1.3-.38l-1.42-.83-.2-.1-.85-.51-1.8-1.05c-1.91-1.11-3.8-2.24-5.72-3.31-3.82-2.18-7.66-4.34-11.54-6.42,3.69,2.41,7.42,4.74,11.17,7.05,1.86,1.17,3.76,2.29,5.64,3.42l1.45.88-1.38,1c-1.78,1.28-3.58,2.54-5.34,3.87L322,403.18c-1.75,1.34-3.51,2.65-5.25,4,1.86-1.18,3.68-2.41,5.53-3.63l5.46-3.71c1.82-1.22,3.61-2.51,5.42-3.76l1.71-1.19.54.33,1.41.85a3.22,3.22,0,0,0,1.82.53,3.18,3.18,0,0,0,1.77-.68l1.34-1,.51-.37,1.8,1c1.9,1.1,3.79,2.24,5.71,3.3,3.83,2.18,7.66,4.35,11.55,6.43-3.69-2.41-7.43-4.74-11.17-7.05C348.32,397.16,346.42,396,344.54,394.9Z" style="opacity:0.2;isolation:isolate"></path><rect x="121.3" y="338.12" width="46.11" height="27.1" rx="1.19" transform="translate(-99.2 59.8) rotate(-17.53)" style="fill:#263238"></rect><rect x="121.3" y="338.12" width="46.11" height="27.1" rx="1.19" transform="translate(-99.2 59.8) rotate(-17.53)" style="fill:#fff;opacity:0.5;isolation:isolate"></rect><path d="M150.43,351.24l-1.63-.46,1.07-1.32c1.38-1.71,2.79-3.41,4.15-5.14l4.09-5.18c1.33-1.75,2.7-3.48,4-5.24-1.48,1.63-2.92,3.29-4.38,5l-4.3,5c-1.44,1.67-2.83,3.37-4.25,5.06l-1.33,1.59-.63.77-.15.17L146,352.71a2.14,2.14,0,0,1-2.45.77l-1.59-.43-.22-.05-1-.27-2-.54c-2.13-.56-4.24-1.16-6.38-1.69-4.26-1.11-8.53-2.18-12.82-3.17,4.19,1.36,8.4,2.62,12.63,3.87,2.1.64,4.22,1.23,6.33,1.83l1.63.47-1.06,1.31c-1.39,1.71-2.8,3.39-4.14,5.13l-4.1,5.18c-1.34,1.75-2.7,3.48-4,5.25,1.48-1.63,2.91-3.3,4.37-4.95l4.3-5c1.44-1.65,2.83-3.36,4.25-5l1.34-1.6.6.17,1.59.45a3,3,0,0,0,3.42-1.08l1-1.28.4-.49,2,.54c2.12.56,4.25,1.16,6.38,1.69,4.26,1.1,8.53,2.19,12.82,3.18-4.18-1.37-8.4-2.63-12.62-3.88C154.67,352.42,152.55,351.84,150.43,351.24Z" style="opacity:0.2;isolation:isolate"></path><rect x="341.92" y="362.52" width="46.11" height="27.1" rx="1.19" transform="translate(-94.9 124.77) rotate(-17.2)" style="fill:#263238"></rect><rect x="341.92" y="362.52" width="46.11" height="27.1" rx="1.19" transform="translate(-94.9 124.77) rotate(-17.2)" style="fill:#fff;opacity:0.5;isolation:isolate"></rect><path d="M371.05,375.67l-1.62-.46,1.07-1.32c1.39-1.7,2.81-3.39,4.18-5.11l4.12-5.16c1.34-1.74,2.72-3.46,4.05-5.22-1.49,1.62-2.94,3.28-4.41,4.92l-4.33,5c-1.45,1.66-2.85,3.36-4.27,5l-1.35,1.59-.63.76-.15.17-1.07,1.26a2.23,2.23,0,0,1-1.1.79,2.19,2.19,0,0,1-1.36,0l-1.58-.44-.22-.05-.95-.28-2-.54c-2.13-.59-4.24-1.19-6.38-1.73-4.25-1.14-8.51-2.24-12.8-3.25,4.18,1.39,8.39,2.67,12.61,4,2.1.65,4.21,1.24,6.32,1.86l1.63.48-1.08,1.3c-1.39,1.7-2.81,3.38-4.16,5.11l-4.13,5.16c-1.35,1.74-2.72,3.46-4,5.22,1.49-1.62,2.93-3.28,4.4-4.92l4.33-5c1.45-1.65,2.84-3.35,4.28-5l1.34-1.59.61.18,1.58.46a3,3,0,0,0,3.43-1.06l1.05-1.28.4-.48,2,.55c2.12.57,4.24,1.18,6.36,1.72,4.26,1.13,8.52,2.24,12.81,3.25-4.18-1.39-8.39-2.67-12.6-4C375.29,376.88,373.16,376.29,371.05,375.67Z" style="opacity:0.2;isolation:isolate"></path><rect x="165.45" y="331.7" width="46.11" height="27.1" rx="1.19" transform="translate(-115.12 95.16) rotate(-21.89)" style="fill:#263238"></rect><rect x="165.45" y="331.7" width="46.11" height="27.1" rx="1.19" transform="translate(-115.12 95.16) rotate(-21.89)" style="fill:#fff;opacity:0.5;isolation:isolate"></rect><path d="M194.53,344.36l-1.66-.33,1-1.4c1.25-1.81,2.52-3.61,3.74-5.44l3.69-5.47c1.19-1.85,2.43-3.68,3.6-5.54-1.35,1.74-2.65,3.51-4,5.27L197,336.77c-1.31,1.77-2.57,3.57-3.85,5.36l-1.21,1.69-.57.82-.14.18-1,1.34a2.23,2.23,0,0,1-1,.88,2.2,2.2,0,0,1-1.35.08l-1.62-.31-.22,0-1-.2-2-.38c-2.17-.41-4.32-.84-6.5-1.2-4.33-.78-8.67-1.53-13-2.19,4.28,1,8.58,2,12.89,2.9,2.14.48,4.3.9,6.45,1.34l1.66.34-1,1.39c-1.25,1.81-2.53,3.6-3.74,5.43l-3.69,5.48c-1.2,1.84-2.42,3.67-3.6,5.54,1.35-1.74,2.66-3.51,4-5.27l3.9-5.33c1.31-1.76,2.56-3.57,3.85-5.35l1.22-1.7.61.13,1.62.33a3.16,3.16,0,0,0,1.89-.12A3.1,3.1,0,0,0,191,346.7l.94-1.36.36-.51,2.05.38c2.15.4,4.32.84,6.48,1.2,4.34.77,8.67,1.53,13,2.19-4.28-1-8.58-2-12.88-2.91C198.85,345.22,196.68,344.8,194.53,344.36Z" style="opacity:0.2;isolation:isolate"></path><rect x="125.16" y="373.43" width="46.11" height="27.1" rx="1.19" transform="translate(-71.01 35.33) rotate(-10.98)" style="fill:#263238"></rect><rect x="125.16" y="373.43" width="46.11" height="27.1" rx="1.19" transform="translate(-71.01 35.33) rotate(-10.98)" style="fill:#fff;opacity:0.5;isolation:isolate"></rect><path d="M154.3,387.25l-1.56-.64,1.21-1.19c1.56-1.54,3.16-3.07,4.7-4.63l4.66-4.68c1.52-1.59,3.08-3.15,4.59-4.76-1.66,1.45-3.28,2.94-4.92,4.42l-4.84,4.48c-1.62,1.49-3.2,3-4.79,4.54l-1.52,1.44-.71.69-.16.15-1.2,1.14a2.17,2.17,0,0,1-1.18.66,2.22,2.22,0,0,1-1.35-.17l-1.53-.61-.21-.08-.92-.37-1.93-.77c-2.06-.81-4.09-1.64-6.15-2.4-4.11-1.59-8.23-3.15-12.37-4.62,4,1.83,8,3.57,12.1,5.29,2,.87,4.05,1.69,6.09,2.54l1.56.65-1.21,1.18c-1.57,1.54-3.16,3.05-4.7,4.62l-4.66,4.69c-1.53,1.58-3.07,3.14-4.58,4.75,1.65-1.45,3.27-2.94,4.91-4.42l4.84-4.49c1.62-1.48,3.19-3,4.8-4.53l1.51-1.44.58.24,1.53.63a3.12,3.12,0,0,0,1.87.25,3.15,3.15,0,0,0,1.65-.93l1.18-1.16.45-.43,1.94.76c2,.8,4.08,1.64,6.14,2.41,4.11,1.57,8.22,3.14,12.38,4.61-4-1.83-8.05-3.56-12.1-5.29C158.38,388.91,156.33,388.09,154.3,387.25Z" style="opacity:0.2;isolation:isolate"></path><rect x="80.42" y="375.75" width="46.11" height="27.1" rx="1.19" transform="translate(-72.27 26.84) rotate(-10.98)" style="fill:#263238"></rect><rect x="80.42" y="375.75" width="46.11" height="27.1" rx="1.19" transform="translate(-72.27 26.84) rotate(-10.98)" style="fill:#fff;opacity:0.5;isolation:isolate"></rect><path d="M109.56,389.57l-1.57-.64,1.21-1.19c1.57-1.54,3.16-3.06,4.71-4.63l4.66-4.68c1.52-1.59,3.08-3.15,4.58-4.75-1.65,1.45-3.27,2.94-4.91,4.41l-4.84,4.49c-1.62,1.49-3.2,3-4.8,4.54l-1.51,1.43-.71.69-.17.15-1.2,1.14a2.19,2.19,0,0,1-1.17.67,2.23,2.23,0,0,1-1.35-.18l-1.53-.61-.21-.07-.92-.38-1.94-.76c-2-.81-4.08-1.64-6.15-2.41-4.1-1.59-8.22-3.14-12.37-4.62,4,1.83,8,3.57,12.11,5.29,2,.88,4,1.7,6.08,2.54l1.57.65-1.21,1.18c-1.57,1.54-3.17,3.06-4.7,4.63l-4.66,4.68c-1.53,1.58-3.08,3.15-4.58,4.75,1.65-1.45,3.27-2.94,4.91-4.42L93.73,397c1.62-1.48,3.19-3,4.8-4.53L100,391l.58.24,1.52.63a3.15,3.15,0,0,0,1.88.24,3.09,3.09,0,0,0,1.65-.93l1.18-1.15.45-.44,1.94.76c2,.8,4.08,1.64,6.14,2.41,4.11,1.58,8.22,3.15,12.38,4.62-4-1.83-8.05-3.57-12.1-5.29C113.64,391.23,111.59,390.41,109.56,389.57Z" style="opacity:0.2;isolation:isolate"></path><rect x="93.41" y="372.33" width="46.11" height="27.1" rx="1.19" transform="translate(21.82 -5.92) rotate(3.21)" style="fill:#263238"></rect><rect x="93.41" y="372.33" width="46.11" height="27.1" rx="1.19" transform="translate(21.82 -5.92) rotate(3.21)" style="fill:#fff;opacity:0.7000000000000001;isolation:isolate"></rect><path d="M122.3,387.63l-1.36-1,1.46-.86c1.9-1.1,3.82-2.19,5.7-3.33l5.67-3.4c1.86-1.16,3.75-2.29,5.61-3.48-2,1-3.9,2.05-5.85,3.08l-5.79,3.16c-1.94,1.05-3.85,2.14-5.76,3.22l-1.82,1-.86.5-.2.1-1.44.81a2.27,2.27,0,0,1-1.3.36,2.23,2.23,0,0,1-1.27-.5l-1.33-1-.18-.12-.8-.59-1.7-1.22c-1.79-1.29-3.55-2.59-5.37-3.84-3.59-2.55-7.2-5.07-10.86-7.51,3.43,2.76,6.93,5.43,10.44,8.1,1.74,1.34,3.51,2.63,5.28,3.95l1.35,1-1.46.85c-1.9,1.11-3.82,2.19-5.69,3.33l-5.66,3.4c-1.88,1.16-3.76,2.3-5.61,3.48,2-1,3.89-2.05,5.84-3.08l5.8-3.16c1.93-1,3.83-2.15,5.76-3.22l1.82-1,.5.38,1.32,1a3.17,3.17,0,0,0,1.76.7,3.1,3.1,0,0,0,1.83-.5l1.42-.83.55-.31,1.69,1.21c1.79,1.28,3.56,2.59,5.36,3.84,3.6,2.54,7.2,5.07,10.87,7.51-3.43-2.75-6.93-5.43-10.43-8.09C125.85,390.24,124.06,389,122.3,387.63Z" style="opacity:0.2;isolation:isolate"></path><rect x="320.63" y="341.75" width="46.11" height="27.1" rx="1.19" transform="translate(169.79 -107.43) rotate(23.45)" style="fill:#263238"></rect><rect x="320.63" y="341.75" width="46.11" height="27.1" rx="1.19" transform="translate(169.79 -107.43) rotate(23.45)" style="fill:#fff;opacity:0.7000000000000001;isolation:isolate"></rect><path d="M348.56,359l-.93-1.41,1.67-.29c2.16-.39,4.34-.75,6.5-1.16l6.49-1.23c2.15-.45,4.32-.85,6.47-1.33-2.19.26-4.36.58-6.55.87l-6.53,1c-2.18.31-4.35.68-6.52,1l-2.06.33-1,.17-.22,0-1.63.26a2.19,2.19,0,0,1-1.35-.12,2.14,2.14,0,0,1-1-.91L341,354.8l-.13-.18-.54-.83-1.17-1.73c-1.24-1.83-2.44-3.66-3.71-5.46-2.49-3.63-5-7.24-7.6-10.8,2.27,3.77,4.63,7.49,7,11.2,1.17,1.86,2.39,3.69,3.59,5.54l.93,1.42-1.67.29c-2.17.38-4.34.73-6.49,1.16l-6.49,1.22c-2.16.44-4.32.86-6.47,1.33,2.18-.26,4.36-.57,6.55-.86l6.53-1c2.18-.31,4.34-.69,6.52-1l2.06-.32.34.52.9,1.38a3.23,3.23,0,0,0,1.41,1.27,3.16,3.16,0,0,0,1.89.16l1.62-.28.62-.11,1.17,1.72c1.23,1.82,2.44,3.67,3.7,5.46,2.5,3.63,5,7.25,7.6,10.81-2.27-3.77-4.62-7.49-7-11.21C351,362.64,349.76,360.81,348.56,359Z" style="opacity:0.2;isolation:isolate"></path><rect x="276.01" y="322.43" width="46.11" height="27.1" rx="1.19" transform="translate(377 -107.02) rotate(51.65)" style="fill:#263238"></rect><rect x="276.01" y="322.43" width="46.11" height="27.1" rx="1.19" transform="translate(377 -107.02) rotate(51.65)" style="fill:#fff;opacity:0.7000000000000001;isolation:isolate"></rect><path d="M301.63,341.51l-.15-1.68,1.61.52c2.09.69,4.18,1.4,6.28,2l6.3,2c2.11.62,4.21,1.29,6.33,1.89-2.05-.81-4.12-1.56-6.18-2.33l-6.21-2.25c-2.07-.75-4.16-1.45-6.24-2.16l-2-.69-1-.31-.21-.08-1.56-.54a2.25,2.25,0,0,1-1.13-.74,2.18,2.18,0,0,1-.46-1.28l-.16-1.64,0-.22-.09-1L296.6,331c-.22-2.2-.42-4.38-.69-6.57-.47-4.37-1-8.75-1.58-13.11.21,4.4.53,8.79.86,13.18.15,2.2.36,4.38.55,6.57l.14,1.69-1.6-.53c-2.09-.69-4.17-1.4-6.27-2l-6.3-2c-2.11-.63-4.21-1.29-6.33-1.89,2.05.81,4.12,1.56,6.18,2.34l6.22,2.23c2.06.76,4.15,1.44,6.22,2.18l2,.68.06.63.14,1.64a3,3,0,0,0,2.23,2.82l1.56.51.6.2.21,2.07c.23,2.19.42,4.38.69,6.56.49,4.38,1,8.75,1.59,13.12-.22-4.4-.53-8.79-.86-13.18C302,345.9,301.82,343.7,301.63,341.51Z" style="opacity:0.2;isolation:isolate"></path><rect x="238" y="342.2" width="46.11" height="27.1" rx="1.19" transform="translate(-51.48 44.26) rotate(-8.82)" style="fill:#263238"></rect><rect x="238" y="342.2" width="46.11" height="27.1" rx="1.19" transform="translate(-51.48 44.26) rotate(-8.82)" style="fill:#fff;opacity:0.7000000000000001;isolation:isolate"></rect><path d="M267.13,356.25l-1.54-.7,1.25-1.14c1.63-1.49,3.28-3,4.88-4.46l4.83-4.5c1.58-1.53,3.19-3,4.76-4.57-1.71,1.38-3.38,2.81-5.07,4.23l-5,4.29c-1.68,1.43-3.31,2.9-5,4.36l-1.57,1.37-.74.67-.17.14L262.55,357a2.2,2.2,0,0,1-1.2.63,2.16,2.16,0,0,1-1.34-.23l-1.5-.67-.21-.08-.91-.41-1.91-.84c-2-.88-4-1.79-6-2.63-4-1.75-8.1-3.46-12.19-5.08,3.93,2,7.91,3.86,11.9,5.74,2,1,4,1.85,6,2.76l1.55.71-1.26,1.14c-1.63,1.48-3.28,2.93-4.87,4.44L245.71,367c-1.59,1.52-3.19,3-4.76,4.57,1.71-1.38,3.38-2.81,5.07-4.23l5-4.3c1.68-1.42,3.3-2.9,5-4.35l1.57-1.38.57.26,1.5.69a3.12,3.12,0,0,0,1.87.32,3.17,3.17,0,0,0,1.68-.87l1.22-1.11.47-.42,1.9.84c2,.87,4,1.79,6.05,2.63,4.05,1.73,8.1,3.46,12.2,5.08-3.93-2-7.91-3.87-11.9-5.74C271.14,358.06,269.13,357.16,267.13,356.25Z" style="opacity:0.2;isolation:isolate"></path><rect x="132.97" y="342.2" width="46.11" height="27.1" rx="1.19" transform="translate(126.26 -31.57) rotate(19.29)" style="fill:#263238"></rect><rect x="132.97" y="342.2" width="46.11" height="27.1" rx="1.19" transform="translate(126.26 -31.57) rotate(19.29)" style="fill:#fff;opacity:0.7000000000000001;isolation:isolate"></rect><path d="M161.15,359.05l-1-1.34,1.65-.42c2.13-.54,4.27-1.05,6.4-1.63l6.38-1.69c2.12-.61,4.25-1.17,6.36-1.79-2.16.41-4.31.89-6.47,1.33L168,354.94c-2.15.48-4.28,1-6.42,1.51l-2,.48-1,.23-.22,0-1.61.38a2.22,2.22,0,0,1-1.35,0,2.18,2.18,0,0,1-1.07-.83l-1-1.3-.15-.17-.6-.79-1.29-1.63c-1.37-1.74-2.7-3.48-4.1-5.18-2.74-3.44-5.52-6.86-8.36-10.22,2.54,3.6,5.16,7.13,7.79,10.67,1.3,1.77,2.65,3.5,4,5.25l1,1.36-1.64.4c-2.13.54-4.27,1.05-6.39,1.63l-6.38,1.7c-2.12.59-4.25,1.16-6.36,1.79,2.16-.42,4.31-.89,6.47-1.34l6.45-1.44c2.14-.46,4.28-1,6.42-1.49l2-.48.38.5,1,1.31A3,3,0,0,0,157,358.5l1.6-.4.61-.16,1.29,1.64c1.36,1.72,2.7,3.48,4.09,5.18,2.76,3.43,5.52,6.86,8.37,10.22-2.54-3.6-5.16-7.14-7.79-10.67C163.84,362.54,162.48,360.8,161.15,359.05Z" style="opacity:0.2;isolation:isolate"></path><rect x="279.5" y="356.67" width="46.11" height="27.1" rx="1.19" transform="translate(-131.13 168.91) rotate(-25.84)" style="fill:#263238"></rect><rect x="279.5" y="356.67" width="46.11" height="27.1" rx="1.19" transform="translate(-131.13 168.91) rotate(-25.84)" style="fill:#fff;opacity:0.7000000000000001;isolation:isolate"></rect><path d="M308.5,368.91l-1.67-.22.86-1.45c1.12-1.9,2.27-3.78,3.36-5.69l3.3-5.72c1.07-1.92,2.17-3.83,3.22-5.77-1.23,1.83-2.41,3.69-3.62,5.53l-3.53,5.58c-1.18,1.85-2.32,3.74-3.47,5.62l-1.09,1.77-.51.85-.12.19-.87,1.41a2.17,2.17,0,0,1-2.32,1.12l-1.63-.2-.22,0-1-.13-2.07-.24c-2.19-.25-4.37-.54-6.56-.75-4.37-.48-8.75-.93-13.14-1.29,4.34.75,8.7,1.39,13.05,2,2.18.33,4.36.6,6.54.89l1.68.23-.87,1.45c-1.12,1.89-2.27,3.77-3.35,5.68l-3.3,5.72c-1.08,1.92-2.17,3.83-3.22,5.77,1.23-1.83,2.41-3.68,3.62-5.53l3.53-5.58c1.18-1.85,2.3-3.74,3.47-5.61l1.09-1.78.63.08,1.63.22a3.09,3.09,0,0,0,1.88-.24,3.13,3.13,0,0,0,1.35-1.32l.85-1.42.32-.54,2.07.24c2.18.25,4.37.54,6.55.75,4.38.47,8.75.93,13.15,1.29-4.34-.74-8.69-1.38-13.05-2C312.87,369.47,310.68,369.2,308.5,368.91Z" style="opacity:0.2;isolation:isolate"></path><rect x="210.33" y="359.89" width="46.11" height="27.1" rx="1.19" transform="translate(132.22 -55.15) rotate(18.72)" style="fill:#263238"></rect><rect x="210.33" y="359.89" width="46.11" height="27.1" rx="1.19" transform="translate(132.22 -55.15) rotate(18.72)" style="fill:#fff;opacity:0.7000000000000001;isolation:isolate"></rect><path d="M238.54,376.69l-1-1.33,1.64-.44c2.12-.56,4.26-1.09,6.38-1.69l6.37-1.75c2.11-.63,4.23-1.21,6.34-1.86-2.16.44-4.31.93-6.46,1.4l-6.43,1.5c-2.14.49-4.28,1-6.41,1.56l-2,.5-1,.25-.22.05-1.6.39a2.3,2.3,0,0,1-1.35,0,2.23,2.23,0,0,1-1.09-.83l-1-1.28-.15-.17-.61-.78-1.31-1.63c-1.38-1.72-2.73-3.45-4.15-5.14q-4.16-5.12-8.45-10.14c2.57,3.58,5.22,7.09,7.89,10.6,1.32,1.76,2.68,3.48,4,5.22l1,1.34-1.64.42c-2.13.56-4.26,1.09-6.37,1.69l-6.37,1.76c-2.11.62-4.23,1.21-6.34,1.86,2.16-.44,4.3-.94,6.46-1.4l6.43-1.51c2.14-.48,4.27-1,6.41-1.56l2-.49.39.49,1,1.3a3.18,3.18,0,0,0,1.51,1.15,3.24,3.24,0,0,0,1.9,0l1.59-.42.61-.16,1.3,1.62c1.38,1.71,2.74,3.45,4.14,5.14,2.79,3.41,5.59,6.81,8.47,10.14-2.57-3.57-5.22-7.08-7.89-10.59C241.26,380.15,239.89,378.43,238.54,376.69Z" style="opacity:0.2;isolation:isolate"></path><rect x="186.67" y="340.2" width="46.11" height="27.1" rx="1.19" transform="translate(-96.73 79.51) rotate(-17.51)" style="fill:#263238"></rect><rect x="186.67" y="340.2" width="46.11" height="27.1" rx="1.19" transform="translate(-96.73 79.51) rotate(-17.51)" style="fill:#fff;opacity:0.7000000000000001;isolation:isolate"></rect><path d="M215.8,353.32l-1.62-.46,1.06-1.32c1.39-1.71,2.79-3.4,4.15-5.13l4.1-5.18c1.33-1.76,2.7-3.48,4-5.25-1.48,1.63-2.91,3.3-4.38,4.95l-4.3,5c-1.44,1.67-2.83,3.37-4.24,5.06l-1.34,1.6-.63.77-.15.16-1.06,1.27a2.14,2.14,0,0,1-1.09.79,2.12,2.12,0,0,1-1.36,0l-1.59-.43-.22-.05-1-.27-2-.54c-2.13-.57-4.24-1.16-6.38-1.69-4.26-1.11-8.53-2.19-12.82-3.18,4.19,1.37,8.41,2.63,12.63,3.88,2.1.64,4.22,1.22,6.33,1.83l1.64.47-1.07,1.31c-1.39,1.71-2.8,3.39-4.15,5.13l-4.09,5.18c-1.34,1.75-2.7,3.48-4,5.24,1.48-1.62,2.92-3.29,4.38-4.94l4.3-5c1.44-1.65,2.83-3.36,4.25-5l1.34-1.6.6.17,1.59.45a3.12,3.12,0,0,0,1.89,0,3.21,3.21,0,0,0,1.54-1.12l1-1.28.4-.48,2,.53c2.13.57,4.25,1.17,6.38,1.7,4.26,1.1,8.53,2.19,12.82,3.17-4.18-1.36-8.4-2.62-12.62-3.88C220,354.51,217.92,353.92,215.8,353.32Z" style="opacity:0.2;isolation:isolate"></path><rect x="185.18" y="372.82" width="46.11" height="27.1" rx="1.19" transform="translate(-18.16 10.36) rotate(-2.73)" style="fill:#263238"></rect><rect x="185.18" y="372.82" width="46.11" height="27.1" rx="1.19" transform="translate(-18.16 10.36) rotate(-2.73)" style="fill:#fff;opacity:0.7000000000000001;isolation:isolate"></rect><path d="M214.22,387.51l-1.46-.86,1.37-1c1.77-1.3,3.57-2.58,5.32-3.91l5.28-4c1.74-1.36,3.5-2.68,5.23-4-1.85,1.2-3.67,2.44-5.5,3.67L219,381.14c-1.81,1.24-3.6,2.53-5.39,3.8l-1.71,1.2-.8.59-.19.12-1.35.95a2.1,2.1,0,0,1-2.56.13l-1.43-.82-.2-.11-.85-.5-1.81-1c-1.92-1.09-3.81-2.21-5.74-3.26-3.84-2.16-7.69-4.29-11.58-6.35,3.7,2.39,7.45,4.69,11.22,7,1.87,1.15,3.77,2.26,5.66,3.38l1.45.87-1.36,1c-1.78,1.3-3.57,2.57-5.32,3.91l-5.28,4c-1.74,1.35-3.5,2.67-5.22,4.05,1.84-1.2,3.66-2.44,5.5-3.67l5.43-3.75c1.82-1.23,3.59-2.53,5.4-3.8l1.7-1.2.54.32,1.42.84a3.06,3.06,0,0,0,1.82.52,3.12,3.12,0,0,0,1.77-.69l1.33-1,.51-.37,1.8,1c1.91,1.09,3.81,2.21,5.74,3.27,3.84,2.15,7.68,4.29,11.59,6.34-3.7-2.38-7.46-4.68-11.22-7C218,389.74,216.11,388.63,214.22,387.51Z" style="opacity:0.2;isolation:isolate"></path><rect x="308.87" y="372.82" width="46.11" height="27.1" rx="1.19" transform="translate(141.58 -86.1) rotate(18.72)" style="fill:#263238"></rect><rect x="308.87" y="372.82" width="46.11" height="27.1" rx="1.19" transform="translate(141.58 -86.1) rotate(18.72)" style="fill:#fff;opacity:0.7000000000000001;isolation:isolate"></rect><path d="M337.09,389.62l-1-1.33,1.64-.44c2.13-.56,4.27-1.09,6.39-1.69l6.36-1.75c2.11-.63,4.24-1.21,6.34-1.86-2.15.44-4.3.93-6.46,1.4l-6.42,1.5c-2.15.49-4.28,1-6.42,1.57l-2,.49-1,.25-.22.05-1.61.39a2.11,2.11,0,0,1-2.43-.83l-1-1.28-.14-.17-.61-.78-1.31-1.63c-1.38-1.72-2.73-3.45-4.15-5.14-2.78-3.41-5.58-6.8-8.46-10.14,2.58,3.58,5.23,7.09,7.89,10.6,1.32,1.76,2.69,3.48,4,5.22l1,1.34-1.63.42c-2.13.56-4.27,1.09-6.38,1.7l-6.36,1.75c-2.12.62-4.24,1.21-6.34,1.86,2.15-.44,4.3-.93,6.46-1.4l6.43-1.51c2.14-.48,4.26-1,6.41-1.56l2-.49.39.49,1,1.3a3,3,0,0,0,3.4,1.16l1.6-.42.6-.16,1.31,1.63c1.38,1.7,2.73,3.44,4.14,5.13,2.79,3.41,5.58,6.81,8.47,10.14-2.57-3.57-5.23-7.08-7.89-10.59C339.81,393.08,338.43,391.36,337.09,389.62Z" style="opacity:0.2;isolation:isolate"></path><rect x="248.09" y="373.28" width="46.11" height="27.1" rx="1.19" transform="translate(-15.49 11.34) rotate(-2.33)" style="fill:#263238"></rect><rect x="248.09" y="373.28" width="46.11" height="27.1" rx="1.19" transform="translate(-15.49 11.34) rotate(-2.33)" style="fill:#fff;opacity:0.7000000000000001;isolation:isolate"></rect><path d="M277.12,388l-1.45-.87,1.38-1c1.78-1.29,3.58-2.56,5.35-3.87l5.31-3.93c1.74-1.34,3.51-2.64,5.25-4-1.86,1.19-3.68,2.42-5.53,3.63L282,381.68c-1.82,1.23-3.62,2.5-5.42,3.76l-1.71,1.19-.81.58-.19.12-1.35.95a2.25,2.25,0,0,1-1.27.48,2.15,2.15,0,0,1-1.3-.38l-1.42-.83-.2-.11-.85-.51-1.8-1c-1.91-1.11-3.79-2.24-5.72-3.31-3.82-2.19-7.65-4.34-11.53-6.42,3.68,2.41,7.42,4.73,11.16,7,1.87,1.17,3.76,2.28,5.64,3.42l1.45.88-1.37,1c-1.79,1.29-3.59,2.55-5.34,3.87l-5.31,3.93c-1.76,1.33-3.52,2.65-5.25,4,1.85-1.19,3.68-2.42,5.52-3.63l5.46-3.71c1.83-1.22,3.61-2.51,5.42-3.76l1.71-1.19.54.32,1.41.85A3,3,0,0,0,273,389l1.34-1,.51-.37,1.8,1.05c1.9,1.09,3.8,2.23,5.71,3.3,3.83,2.18,7.66,4.35,11.55,6.43-3.69-2.42-7.42-4.74-11.17-7.06C280.91,390.27,279,389.15,277.12,388Z" style="opacity:0.2;isolation:isolate"></path><rect x="85.16" y="346.22" width="46.11" height="27.1" rx="1.19" transform="translate(-103.32 49.29) rotate(-17.53)" style="fill:#263238"></rect><rect x="85.16" y="346.22" width="46.11" height="27.1" rx="1.19" transform="translate(-103.32 49.29) rotate(-17.53)" style="fill:#fff;opacity:0.7000000000000001;isolation:isolate"></rect><path d="M114.29,359.34l-1.62-.46,1.06-1.32c1.39-1.71,2.79-3.4,4.15-5.13l4.1-5.18c1.33-1.76,2.69-3.48,4-5.25-1.48,1.63-2.92,3.3-4.38,4.95l-4.3,5c-1.44,1.67-2.83,3.37-4.24,5.06l-1.34,1.6-.63.77-.15.16-1.06,1.27a2.22,2.22,0,0,1-1.09.8,2.19,2.19,0,0,1-1.36,0l-1.59-.43-.22,0-.95-.27-2-.53c-2.13-.57-4.24-1.17-6.38-1.69-4.26-1.11-8.53-2.19-12.82-3.18,4.19,1.36,8.41,2.63,12.63,3.88,2.1.64,4.22,1.22,6.34,1.82l1.63.47L103,362.91c-1.39,1.71-2.8,3.4-4.14,5.14l-4.1,5.18c-1.34,1.74-2.7,3.47-4,5.24,1.48-1.63,2.92-3.29,4.38-5l4.29-5c1.44-1.66,2.83-3.37,4.25-5.05l1.34-1.6.61.17,1.58.45a3.12,3.12,0,0,0,1.89,0,3.21,3.21,0,0,0,1.54-1.12l1-1.28.4-.48,2,.53c2.12.57,4.24,1.17,6.37,1.7,4.27,1.09,8.53,2.18,12.83,3.17-4.19-1.36-8.41-2.63-12.63-3.88C118.53,360.52,116.41,359.94,114.29,359.34Z" style="opacity:0.2;isolation:isolate"></path><rect x="353.58" y="369.11" width="46.11" height="27.1" rx="1.19" transform="translate(-96.33 128.52) rotate(-17.2)" style="fill:#263238"></rect><rect x="353.58" y="369.11" width="46.11" height="27.1" rx="1.19" transform="translate(-96.33 128.52) rotate(-17.2)" style="fill:#fff;opacity:0.7000000000000001;isolation:isolate"></rect><path d="M382.71,382.26l-1.62-.46,1.07-1.32c1.39-1.7,2.81-3.39,4.18-5.11l4.12-5.16c1.34-1.74,2.72-3.46,4.05-5.22-1.49,1.62-2.94,3.28-4.41,4.92l-4.33,5c-1.45,1.65-2.85,3.35-4.27,5l-1.35,1.59-.63.76-.15.17-1.07,1.26a2.23,2.23,0,0,1-1.1.79,2.19,2.19,0,0,1-1.36,0l-1.58-.44-.22,0-1-.28-2-.54c-2.13-.59-4.24-1.19-6.38-1.73-4.25-1.14-8.51-2.24-12.8-3.25,4.18,1.39,8.39,2.67,12.61,3.95,2.1.65,4.21,1.24,6.32,1.86l1.63.48-1.08,1.3c-1.39,1.7-2.81,3.38-4.16,5.11L363.09,396c-1.35,1.74-2.72,3.46-4,5.22,1.49-1.62,2.93-3.28,4.4-4.92l4.33-5c1.45-1.65,2.84-3.35,4.28-5l1.34-1.59.61.18,1.58.46a3,3,0,0,0,3.43-1.06l1.05-1.28.4-.48,2,.55c2.12.57,4.24,1.18,6.36,1.72,4.26,1.13,8.52,2.24,12.81,3.25-4.18-1.39-8.39-2.67-12.6-3.95C387,383.47,384.82,382.88,382.71,382.26Z" style="opacity:0.2;isolation:isolate"></path><rect x="152.38" y="364.43" width="46.11" height="27.1" rx="1.19" transform="translate(-128.26 92.65) rotate(-21.89)" style="fill:#263238"></rect><rect x="152.38" y="364.43" width="46.11" height="27.1" rx="1.19" transform="translate(-128.26 92.65) rotate(-21.89)" style="fill:#fff;opacity:0.7000000000000001;isolation:isolate"></rect><path d="M181.46,377.09l-1.66-.33,1-1.4c1.25-1.81,2.52-3.6,3.74-5.43l3.69-5.48c1.19-1.85,2.43-3.67,3.61-5.54-1.36,1.74-2.66,3.51-4,5.27l-3.91,5.32c-1.31,1.77-2.57,3.57-3.85,5.36l-1.21,1.7-.57.81-.14.18-1,1.34a2.13,2.13,0,0,1-2.38,1l-1.62-.31-.22,0-1-.2-2.05-.38c-2.17-.4-4.32-.84-6.5-1.2-4.33-.78-8.66-1.53-13-2.19,4.28,1,8.58,2,12.89,2.91,2.14.47,4.3.89,6.46,1.33l1.66.35-1,1.38c-1.25,1.81-2.53,3.6-3.74,5.44L163,392.42c-1.2,1.85-2.42,3.68-3.6,5.54,1.35-1.74,2.66-3.51,4-5.27l3.9-5.32c1.31-1.77,2.56-3.58,3.85-5.36l1.22-1.69.61.12,1.62.33a3.15,3.15,0,0,0,1.89-.11,3.12,3.12,0,0,0,1.44-1.23l.94-1.36.36-.51,2.05.38c2.16.4,4.32.84,6.48,1.2,4.34.78,8.67,1.54,13,2.19-4.28-1-8.58-2-12.88-2.9C185.78,378,183.62,377.53,181.46,377.09Z" style="opacity:0.2;isolation:isolate"></path><rect x="119.9" y="372.33" width="46.11" height="27.1" rx="1.19" transform="translate(81.93 -21.08) rotate(11.8)" style="fill:#263238"></rect><rect x="119.9" y="372.33" width="46.11" height="27.1" rx="1.19" transform="translate(81.93 -21.08) rotate(11.8)" style="fill:#fff;opacity:0.8;isolation:isolate"></rect><path d="M148.47,388.49l-1.2-1.2,1.58-.63c2-.81,4.1-1.6,6.13-2.45l6.11-2.51c2-.87,4.06-1.71,6.07-2.6-2.09.69-4.16,1.44-6.24,2.17l-6.2,2.25c-2.07.75-4.12,1.55-6.18,2.34l-1.95.73-.92.36-.21.08-1.55.58a2.25,2.25,0,0,1-1.34.16,2.2,2.2,0,0,1-1.18-.68l-1.17-1.16-.17-.15-.7-.7-1.49-1.46c-1.58-1.54-3.13-3.09-4.74-4.6-3.17-3-6.36-6.08-9.62-9,3,3.24,6,6.4,9.11,9.56,1.53,1.59,3.09,3.13,4.63,4.7l1.2,1.2-1.58.62c-2,.81-4.1,1.59-6.12,2.45L124.63,391c-2,.87-4,1.71-6.07,2.61,2.09-.7,4.16-1.45,6.24-2.17l6.21-2.27c2.06-.74,4.11-1.55,6.17-2.32l1.95-.74.45.45,1.16,1.17a3,3,0,0,0,3.51.73l1.54-.6.58-.23,1.49,1.45c1.58,1.53,3.13,3.09,4.73,4.6,3.18,3.05,6.36,6.08,9.63,9.05-3-3.24-6-6.41-9.11-9.57C151.59,391.6,150,390.05,148.47,388.49Z" style="opacity:0.2;isolation:isolate"></path><rect x="324.93" y="370.44" width="46.11" height="27.1" rx="1.19" transform="translate(85.87 -63.05) rotate(11.8)" style="fill:#263238"></rect><rect x="324.93" y="370.44" width="46.11" height="27.1" rx="1.19" transform="translate(85.87 -63.05) rotate(11.8)" style="fill:#fff;opacity:0.8;isolation:isolate"></rect><path d="M353.5,386.59l-1.2-1.2,1.58-.62c2-.82,4.1-1.61,6.13-2.45l6.11-2.51c2-.88,4.06-1.71,6.07-2.61-2.09.7-4.16,1.45-6.24,2.17l-6.2,2.26c-2.07.75-4.12,1.55-6.18,2.33l-1.95.73-.92.37-.21.07-1.55.59a2.17,2.17,0,0,1-1.34.15,2.14,2.14,0,0,1-1.18-.68L345.25,384l-.17-.15-.7-.71-1.49-1.45c-1.58-1.54-3.13-3.1-4.74-4.6-3.17-3.06-6.36-6.08-9.62-9.05,3,3.24,6,6.41,9.11,9.57,1.53,1.58,3.09,3.13,4.63,4.69l1.2,1.21-1.58.62c-2,.81-4.1,1.59-6.12,2.44l-6.11,2.52c-2,.86-4.05,1.71-6.07,2.6,2.09-.69,4.16-1.44,6.24-2.17L336,387.3c2.06-.74,4.11-1.56,6.17-2.33l2-.73.45.44,1.16,1.17a3,3,0,0,0,1.63,1,3.14,3.14,0,0,0,1.88-.22l1.54-.61.58-.23,1.49,1.46c1.58,1.52,3.13,3.09,4.73,4.59,3.18,3.05,6.36,6.09,9.63,9.05-3-3.24-6-6.4-9.11-9.56C356.62,389.7,355.05,388.15,353.5,386.59Z" style="opacity:0.2;isolation:isolate"></path><rect x="258.83" y="362.52" width="46.11" height="27.1" rx="1.19" transform="translate(-30.78 25.18) rotate(-4.85)" style="fill:#263238"></rect><rect x="258.83" y="362.52" width="46.11" height="27.1" rx="1.19" transform="translate(-30.78 25.18) rotate(-4.85)" style="fill:#fff;opacity:0.8;isolation:isolate"></rect><path d="M287.91,377l-1.48-.8,1.33-1.05c1.72-1.37,3.47-2.71,5.17-4.11l5.13-4.15c1.69-1.42,3.4-2.8,5.07-4.24-1.8,1.27-3.57,2.58-5.36,3.87l-5.29,3.94c-1.77,1.31-3.5,2.67-5.25,4l-1.66,1.27-.78.61-.18.13-1.32,1a2.13,2.13,0,0,1-2.56.22l-1.45-.77-.2-.1-.88-.47-1.84-1c-2-1-3.89-2.07-5.86-3.06-3.91-2-7.84-4-11.81-5.91,3.79,2.25,7.62,4.41,11.47,6.56,1.91,1.08,3.85,2.12,5.78,3.17l1.49.81L276.1,378c-1.73,1.36-3.47,2.7-5.17,4.1l-5.13,4.15c-1.69,1.41-3.39,2.8-5.07,4.24,1.81-1.27,3.57-2.58,5.36-3.87l5.3-3.95c1.76-1.3,3.49-2.66,5.25-4l1.65-1.26.56.29,1.44.79a3.14,3.14,0,0,0,1.84.45,3.1,3.1,0,0,0,1.74-.75l1.3-1,.49-.39,1.85,1c1.94,1,3.88,2.06,5.85,3.05,3.92,2,7.84,4,11.81,5.91-3.78-2.25-7.62-4.41-11.46-6.56C291.79,379.07,289.84,378,287.91,377Z" style="opacity:0.2;isolation:isolate"></path><rect x="194.44" y="364.43" width="46.11" height="27.1" rx="1.19" transform="matrix(0.95, 0.32, -0.32, 0.95, 132.83, -49.81)" style="fill:#263238"></rect><rect x="194.44" y="364.43" width="46.11" height="27.1" rx="1.19" transform="matrix(0.95, 0.32, -0.32, 0.95, 132.83, -49.81)" style="fill:#fff;opacity:0.8;isolation:isolate"></rect><path d="M222.65,381.23l-1-1.33,1.64-.43c2.12-.56,4.26-1.1,6.38-1.69L236,376c2.11-.63,4.24-1.21,6.34-1.86-2.15.44-4.3.94-6.45,1.41l-6.43,1.49c-2.15.49-4.28,1-6.41,1.57l-2,.49-1,.25-.22.05-1.6.39a2.14,2.14,0,0,1-2.44-.82l-1-1.29-.14-.17-.61-.78-1.31-1.62c-1.38-1.72-2.73-3.45-4.15-5.14-2.78-3.42-5.58-6.81-8.45-10.14,2.57,3.57,5.22,7.08,7.89,10.59,1.32,1.76,2.68,3.48,4,5.22l1,1.34-1.64.43c-2.13.56-4.26,1.08-6.38,1.69l-6.36,1.76c-2.12.61-4.23,1.2-6.34,1.85,2.16-.44,4.3-.93,6.46-1.4l6.43-1.5c2.14-.49,4.27-1.05,6.41-1.56l2-.5.39.5,1,1.3a3.11,3.11,0,0,0,1.51,1.14,3.05,3.05,0,0,0,1.89,0l1.6-.42.61-.15,1.3,1.62c1.38,1.71,2.74,3.45,4.14,5.13,2.79,3.41,5.58,6.81,8.47,10.15-2.57-3.58-5.23-7.09-7.89-10.6C225.37,384.69,224,383,222.65,381.23Z" style="opacity:0.2;isolation:isolate"></path><rect x="382.51" y="377.92" width="46.11" height="27.1" rx="1.19" transform="translate(-97.64 137.47) rotate(-17.2)" style="fill:#263238"></rect><rect x="382.51" y="377.92" width="46.11" height="27.1" rx="1.19" transform="translate(-97.64 137.47) rotate(-17.2)" style="fill:#fff;opacity:0.8;isolation:isolate"></rect><path d="M411.65,391.07l-1.63-.46,1.07-1.32c1.4-1.7,2.81-3.39,4.18-5.11L419.4,379c1.34-1.74,2.71-3.46,4-5.22-1.49,1.62-2.94,3.28-4.41,4.92l-4.33,5c-1.44,1.65-2.85,3.35-4.27,5l-1.35,1.59-.63.76-.15.17-1.07,1.26a2.12,2.12,0,0,1-2.45.76l-1.59-.44-.22,0-1-.28-2-.54c-2.13-.58-4.24-1.19-6.38-1.73-4.25-1.13-8.51-2.24-12.79-3.25,4.18,1.39,8.39,2.67,12.6,3.95,2.1.65,4.22,1.24,6.33,1.86l1.63.48-1.08,1.3c-1.39,1.7-2.81,3.38-4.17,5.11L392,404.85c-1.36,1.74-2.72,3.46-4,5.22,1.49-1.62,2.94-3.28,4.41-4.92l4.32-5c1.45-1.65,2.85-3.35,4.28-5l1.35-1.59.6.18,1.59.46a3.12,3.12,0,0,0,1.89,0,3.22,3.22,0,0,0,1.54-1.1l1-1.28.4-.48,2,.55c2.12.57,4.24,1.18,6.37,1.72,4.26,1.13,8.51,2.24,12.81,3.25-4.18-1.39-8.39-2.67-12.61-3.95C415.88,392.28,413.76,391.69,411.65,391.07Z" style="opacity:0.2;isolation:isolate"></path><rect x="59.78" y="369.99" width="46.11" height="27.1" rx="1.19" transform="translate(-137.01 58.53) rotate(-21.89)" style="fill:#263238"></rect><rect x="59.78" y="369.99" width="46.11" height="27.1" rx="1.19" transform="translate(-137.01 58.53) rotate(-21.89)" style="fill:#fff;opacity:0.8;isolation:isolate"></rect><path d="M88.86,382.65l-1.65-.34,1-1.39c1.25-1.81,2.52-3.61,3.75-5.44L95.6,370c1.2-1.85,2.43-3.67,3.61-5.53-1.35,1.73-2.66,3.5-4,5.26l-3.91,5.32c-1.3,1.77-2.57,3.58-3.85,5.37l-1.21,1.69-.57.82-.13.17-1,1.35a2.18,2.18,0,0,1-1,.87,2.23,2.23,0,0,1-1.36.09l-1.62-.31-.22,0-1-.19-2-.39c-2.17-.4-4.32-.83-6.49-1.2-4.33-.78-8.67-1.53-13-2.19,4.27,1,8.57,2,12.88,2.91,2.15.47,4.3.89,6.46,1.34l1.66.34-1,1.39c-1.25,1.81-2.53,3.6-3.73,5.43L70.44,398c-1.21,1.84-2.43,3.67-3.61,5.53,1.35-1.73,2.66-3.51,4-5.27l3.91-5.32c1.31-1.76,2.56-3.57,3.85-5.36l1.21-1.69.62.12,1.61.33A3,3,0,0,0,85.35,385l.94-1.35.36-.52,2,.38c2.16.4,4.32.84,6.49,1.21,4.33.77,8.66,1.53,13,2.19-4.28-1-8.58-2-12.89-2.91C93.18,383.5,91,383.09,88.86,382.65Z" style="opacity:0.2;isolation:isolate"></path></g><g id="freepik--envelopes-1--inject-18"><path d="M164.25,435.27l-42.87-9c-.61-.12-.65-.37-.08-.56l22.46-7.12a5,5,0,0,1,2.15-.1l42.87,9c.61.13.65.38.08.56l-22.46,7.13A5,5,0,0,1,164.25,435.27Z" style="fill:#263238"></path><path d="M164.25,435.27l-42.87-9c-.61-.12-.65-.37-.08-.56l22.46-7.12a5,5,0,0,1,2.15-.1l42.87,9c.61.13.65.38.08.56l-22.46,7.13A5,5,0,0,1,164.25,435.27Z" style="fill:#fff;opacity:0.9;isolation:isolate"></path><path d="M159.59,428.52l-.54-.56,2.23,0c2.89,0,5.78.07,8.68.08l8.7.05,8.72,0c-2.86-.07-5.74-.12-8.62-.18l-8.63-.15c-2.88-.05-5.77-.08-8.65-.12l-2.74,0h-1.59l-2.17,0a7.58,7.58,0,0,1-1.64-.14,1.54,1.54,0,0,1-.87-.38l-.55-.54-.09-.07-.32-.33-.7-.68c-.75-.72-1.46-1.44-2.26-2.15-1.53-1.44-3.1-2.87-4.79-4.28,1.19,1.46,2.51,2.92,3.85,4.37.65.73,1.38,1.45,2.07,2.17l.54.56-2.22,0c-2.9,0-5.78-.07-8.68-.08l-8.7,0-8.72,0,8.62.19,8.64.14c2.87.05,5.76.08,8.65.12l2.73,0,.2.21.52.54a2.26,2.26,0,0,0,1.22.54,11.63,11.63,0,0,0,2.3.19l2.16,0h.83l.71.68c.75.72,1.45,1.44,2.24,2.15,1.55,1.44,3.1,2.87,4.8,4.29-1.19-1.47-2.51-2.93-3.85-4.38C161,430,160.29,429.24,159.59,428.52Z" style="opacity:0.2;isolation:isolate"></path><path d="M385,436.87l-42.87-9c-.62-.12-.65-.37-.08-.55l22.46-7.13a5.13,5.13,0,0,1,2.14-.1l42.87,9c.62.13.65.38.08.56l-22.46,7.13A5,5,0,0,1,385,436.87Z" style="fill:#263238"></path><path d="M385,436.87l-42.87-9c-.62-.12-.65-.37-.08-.55l22.46-7.13a5.13,5.13,0,0,1,2.14-.1l42.87,9c.62.13.65.38.08.56l-22.46,7.13A5,5,0,0,1,385,436.87Z" style="fill:#fff;opacity:0.9;isolation:isolate"></path><path d="M380.29,430.12l-.55-.55,2.23,0c2.89,0,5.79.06,8.68.07l8.7,0c2.91,0,5.81,0,8.72,0-2.86-.07-5.74-.12-8.61-.18l-8.64-.15c-2.87,0-5.77-.08-8.65-.12l-2.73,0h-1.6l-2.16,0a8.48,8.48,0,0,1-1.65-.13,1.64,1.64,0,0,1-.87-.39l-.55-.54-.08-.07-.32-.33-.71-.68c-.75-.72-1.45-1.44-2.26-2.15-1.52-1.44-3.09-2.86-4.78-4.28,1.19,1.47,2.51,2.92,3.85,4.37.65.73,1.37,1.45,2.07,2.17l.53.56-2.22,0c-2.89,0-5.78-.07-8.67-.08l-8.7-.05c-2.91,0-5.81,0-8.72,0,2.86.07,5.74.12,8.61.18l8.64.14c2.87.05,5.76.08,8.65.12l2.73,0,.2.21.53.54a2.18,2.18,0,0,0,1.21.54,11.69,11.69,0,0,0,2.3.19l2.17,0h.82l.71.68c.75.72,1.45,1.44,2.25,2.16,1.54,1.43,3.1,2.86,4.79,4.28-1.19-1.47-2.51-2.92-3.85-4.38C381.71,431.56,381,430.84,380.29,430.12Z" style="opacity:0.2;isolation:isolate"></path><path d="M266.3,436.87l42.87-9c.61-.12.65-.37.08-.55l-22.46-7.13a5.17,5.17,0,0,0-2.15-.1l-42.86,9c-.62.13-.65.38-.09.56l22.47,7.13A5,5,0,0,0,266.3,436.87Z" style="fill:#263238"></path><path d="M266.3,436.87l42.87-9c.61-.12.65-.37.08-.55l-22.46-7.13a5.17,5.17,0,0,0-2.15-.1l-42.86,9c-.62.13-.65.38-.09.56l22.47,7.13A5,5,0,0,0,266.3,436.87Z" style="fill:#fff;opacity:0.9;isolation:isolate"></path><path d="M271,430.12l.55-.55-2.23,0c-2.89,0-5.79.06-8.69.07l-8.7,0c-2.9,0-5.8,0-8.72,0,2.87-.07,5.74-.12,8.62-.18l8.63-.15c2.88,0,5.77-.08,8.66-.12l2.73,0h1.59l2.17,0a8.3,8.3,0,0,0,1.64-.13,1.68,1.68,0,0,0,.88-.39l.55-.54.08-.07.32-.33.71-.68c.75-.72,1.45-1.44,2.26-2.15,1.52-1.44,3.09-2.86,4.78-4.28-1.19,1.47-2.51,2.92-3.85,4.37-.65.73-1.37,1.45-2.07,2.17l-.53.56,2.22,0c2.89,0,5.77-.07,8.67-.08l8.7-.05c2.91,0,5.81,0,8.72,0-2.86.07-5.74.12-8.62.18l-8.64.14c-2.87.05-5.76.08-8.64.12L280,428l-.21.21-.52.54a2.26,2.26,0,0,1-1.21.54,11.69,11.69,0,0,1-2.3.19l-2.17,0h-.82l-.71.68c-.75.72-1.46,1.44-2.25,2.16-1.54,1.43-3.1,2.86-4.79,4.28,1.18-1.47,2.5-2.92,3.84-4.38C269.53,431.56,270.27,430.84,271,430.12Z" style="opacity:0.2;isolation:isolate"></path></g><g id="freepik--Plant--inject-18"><path d="M404.14,377.23c0-.41-1.39-41.2-8-47.65-6.45-6.28-13.88-.24-14.2,0l-.64-.77c.09-.07,8.43-6.87,15.54,0,6.92,6.73,8.28,46.64,8.33,48.34Z" style="fill:#407BFF"></path><path d="M404.71,385.25c0-.49-4.53-49,13.17-69.26l.75.65c-17.41,20-13,68-12.92,68.51Z" style="fill:#407BFF"></path><path d="M404,380.12l-1-.07c0-.55,3.47-55.11-9.52-67.06l.67-.74C407.51,324.53,404.17,377.85,404,380.12Z" style="fill:#407BFF"></path><path d="M405.71,380.09h-1c0-1.5.43-36.84,10.46-42.59a7.1,7.1,0,0,1,6.48-.63c6.06,2.51,9.07,13.31,9.19,13.76l-1,.27c0-.11-3-10.79-8.61-13.1a6.12,6.12,0,0,0-5.6.57C406.13,343.83,405.71,379.73,405.71,380.09Z" style="fill:#407BFF"></path><path d="M401.8,380.11l-1-.05c0-.28,1.52-27.94-5.95-37.69C393,340,391.06,338.87,389,339c-4.9.34-9,7.51-9.05,7.58l-.87-.49c.18-.32,4.41-7.71,9.85-8.09,2.43-.16,4.69,1.09,6.72,3.74C403.34,351.8,401.87,379,401.8,380.11Z" style="fill:#407BFF"></path><path d="M403.47,383.88c-.2-2.69-4.87-65.82,3.35-76.94l.8.59c-8,10.82-3.2,75.62-3.15,76.27Z" style="fill:#407BFF"></path><path d="M423.89,343.24s-4.93,1.82-3.46,6.12,17.07,11.36,17.07,11.36,6.53-6,.53-15.73S424,340.17,423.89,343.24Z" style="fill:#407BFF"></path><path d="M423.89,343.24s-4.93,1.82-3.46,6.12,17.07,11.36,17.07,11.36,6.53-6,.53-15.73S424,340.17,423.89,343.24Z" style="fill:#fff;opacity:0.2;isolation:isolate"></path><path d="M402.44,335.07s5.25-.22,5.55,4.31-11.38,17.06-11.38,17.06-8.34-3-6.55-14.32S401.13,332.28,402.44,335.07Z" style="fill:#407BFF"></path><path d="M402.44,335.07s5.25-.22,5.55,4.31-11.38,17.06-11.38,17.06-8.34-3-6.55-14.32S401.13,332.28,402.44,335.07Z" style="fill:#fff;opacity:0.2;isolation:isolate"></path><path d="M398,313.39s3.5-.38,3.22-2.51-13.62-7.63-21.49,1.25c0,0,5,8.66,12.32,8.77S398,313.39,398,313.39Z" style="fill:#407BFF"></path><path d="M398,313.39s3.5-.38,3.22-2.51-13.62-7.63-21.49,1.25c0,0,5,8.66,12.32,8.77S398,313.39,398,313.39Z" style="fill:#fff;opacity:0.2;isolation:isolate"></path><path d="M404.52,308.2s-3.17,1.54-4.06-.42,7.52-13.68,18.9-10.3c0,0,.3,10-5.82,14S404.52,308.2,404.52,308.2Z" style="fill:#407BFF"></path><path d="M404.52,308.2s-3.17,1.54-4.06-.42,7.52-13.68,18.9-10.3c0,0,.3,10-5.82,14S404.52,308.2,404.52,308.2Z" style="fill:#fff;opacity:0.2;isolation:isolate"></path><path d="M387.93,341.52s2.42-2-.19-2.91-15.42-.68-15.55,12c0,0,14.91,2.48,16.76-2.35S387.93,341.52,387.93,341.52Z" style="fill:#407BFF"></path><path d="M387.93,341.52s2.42-2-.19-2.91-15.42-.68-15.55,12c0,0,14.91,2.48,16.76-2.35S387.93,341.52,387.93,341.52Z" style="fill:#fff;opacity:0.2;isolation:isolate"></path><path d="M418.34,313.07s-2.42-1.95.19-2.91,15.42-.68,15.55,12c0,0-14.91,2.48-16.76-2.35S418.34,313.07,418.34,313.07Z" style="fill:#407BFF"></path><path d="M418.34,313.07s-2.42-1.95.19-2.91,15.42-.68,15.55,12c0,0-14.91,2.48-16.76-2.35S418.34,313.07,418.34,313.07Z" style="fill:#fff;opacity:0.2;isolation:isolate"></path><path d="M410.46,323.29s-.22-2.38,1.7-1.45,8.59,8.13,1.67,15c0,0-9.31-6.9-7.63-10.49S410.46,323.29,410.46,323.29Z" style="fill:#407BFF"></path><path d="M410.46,323.29s-.22-2.38,1.7-1.45,8.59,8.13,1.67,15c0,0-9.31-6.9-7.63-10.49S410.46,323.29,410.46,323.29Z" style="fill:#fff;opacity:0.2;isolation:isolate"></path><path d="M385.77,326.67s1.44-1.9-.67-2.13-11.61,2.3-9.4,11.77c0,0,11.56-.87,12.05-4.81S385.77,326.67,385.77,326.67Z" style="fill:#407BFF"></path><path d="M385.77,326.67s1.44-1.9-.67-2.13-11.61,2.3-9.4,11.77c0,0,11.56-.87,12.05-4.81S385.77,326.67,385.77,326.67Z" style="fill:#fff;opacity:0.2;isolation:isolate"></path><polygon points="424.82 415.25 385.16 415.25 380.88 371.83 429.1 371.83 424.82 415.25" style="fill:#263238"></polygon><rect x="378.76" y="367.04" width="52.45" height="9.58" style="fill:#263238"></rect><rect x="378.76" y="367.04" width="52.45" height="9.58" style="fill:#fff;opacity:0.2;isolation:isolate"></rect></g><g id="freepik--mail-box--inject-18"><rect x="102.57" y="269.35" width="7.54" height="145.9" style="fill:#263238"></rect><path d="M129,237.73H89.8a12.51,12.51,0,0,0-12.51,12.5v24.33h25v-.15h14.15v.15h25V250.23A12.51,12.51,0,0,0,129,237.73Z" style="fill:#407BFF"></path><path d="M141.48,274.56h-25V250.23A12.51,12.51,0,0,1,129,237.73h0a12.51,12.51,0,0,1,12.51,12.5Z" style="opacity:0.2;isolation:isolate"></path><path d="M110.05,228.11h-2.54v2l2.54,1.3v19.3a3,3,0,1,0,3,3.16h0V228.11Z" style="fill:#407BFF"></path><path d="M110.05,228.11h-2.54v2l2.54,1.3v19.3a3,3,0,1,0,3,3.16h0V228.11Z" style="fill:#fff;opacity:0.6000000000000001;isolation:isolate"></path><path d="M149.08,289l-6.24-16.1-1.36,1.66,6.23,16.1c1.32,3.39,1.14,6.45-.2,8.7C150,297.13,150.75,293.32,149.08,289Z" style="fill:#407BFF"></path><path d="M124.06,289l-5.59-14.44h-2l6.24,16.1c2.66,6.87,10.42,12.44,17.33,12.44,3.5,0,6.1-1.44,7.48-3.74a9,9,0,0,1-6.12,2.08C134.48,301.44,126.73,295.87,124.06,289Z" style="fill:#407BFF"></path><path d="M147.71,290.66l-6.23-16.1h-23L124.06,289c2.67,6.87,10.42,12.44,17.33,12.44a9,9,0,0,0,6.12-2.08C148.85,297.11,149,294.05,147.71,290.66Z" style="fill:#407BFF"></path><polygon points="117.83 272.9 116.46 274.56 119.72 277.77 117.83 272.9" style="fill:#407BFF"></polygon><path d="M147.71,290.66l-6.23-16.1h-23L124.06,289c2.67,6.87,10.42,12.44,17.33,12.44a9,9,0,0,0,6.12-2.08C148.85,297.11,149,294.05,147.71,290.66Z" style="opacity:0.1;isolation:isolate"></path></g><g id="freepik--speech-bubble--inject-18"><rect x="229.52" y="138.38" width="107.09" height="81.88" rx="10.17" style="fill:#407BFF"></rect><path d="M268.1,215.65s-2.83,12.91-18.64,24.26c0,0,27.7-10.41,36.8-24.26Z" style="fill:#407BFF"></path><rect x="251.54" y="160.79" width="63.05" height="37.06" rx="1.19" transform="translate(0.35 -0.55) rotate(0.11)" style="fill:#407BFF"></rect><rect x="251.54" y="160.79" width="63.05" height="37.06" rx="1.19" transform="translate(0.35 -0.55) rotate(0.11)" style="fill:#fff;opacity:0.8;isolation:isolate"></rect><path d="M291.17,181.28,289.23,180l1.94-1.28c2.51-1.66,5.05-3.28,7.53-5l7.49-5.05c2.46-1.73,4.95-3.41,7.4-5.17-2.6,1.51-5.17,3.08-7.76,4.63l-7.67,4.74c-2.57,1.58-5.09,3.22-7.63,4.83l-2.4,1.53L287,180l-.26.16-1.91,1.21a3,3,0,0,1-1.76.58,3,3,0,0,1-1.76-.59l-1.89-1.22-.26-.15-1.14-.75-2.4-1.53c-2.54-1.63-5.05-3.28-7.62-4.85-5.08-3.21-10.2-6.38-15.38-9.45,4.89,3.51,9.86,6.9,14.85,10.28,2.48,1.71,5,3.34,7.5,5l1.93,1.28L275,181.24c-2.51,1.66-5,3.27-7.52,5L260,191.27c-2.47,1.72-5,3.42-7.4,5.18,2.6-1.51,5.16-3.09,7.75-4.64l7.68-4.75c2.56-1.57,5.07-3.22,7.62-4.82l2.41-1.52.72.47,1.88,1.24a4.07,4.07,0,0,0,4.91,0l1.88-1.24.72-.47,2.4,1.54c2.53,1.61,5.05,3.27,7.61,4.85,5.1,3.19,10.2,6.38,15.4,9.44-4.9-3.51-9.87-6.9-14.85-10.28C296.2,184.58,293.67,182.94,291.17,181.28Z" style="opacity:0.2;isolation:isolate"></path></g><g id="freepik--Number--inject-18"><rect x="295.26" y="153.15" width="31.45" height="16.22" rx="3.26" style="fill:#263238"></rect><path d="M304.55,161c0,2.36-1.29,3.59-3.18,3.59a3.3,3.3,0,0,1-1.65-.37l.29-.58a2.44,2.44,0,0,0,1.35.33c1.5,0,2.47-1,2.47-2.85,0-.16,0-.36,0-.57a2.22,2.22,0,0,1-2.13,1.19,2.1,2.1,0,0,1-2.34-2.08,2.17,2.17,0,0,1,2.37-2.14C303.55,157.53,304.55,158.81,304.55,161Zm-1-1.38c0-.77-.64-1.49-1.84-1.49a1.52,1.52,0,0,0-1.7,1.51c0,.91.68,1.5,1.75,1.5A1.62,1.62,0,0,0,303.57,159.63Z" style="fill:#fff"></path><path d="M310.6,161c0,2.36-1.29,3.59-3.18,3.59a3.27,3.27,0,0,1-1.65-.37l.29-.58a2.42,2.42,0,0,0,1.35.33c1.5,0,2.46-1,2.46-2.85,0-.16,0-.36,0-.57a2.2,2.2,0,0,1-2.12,1.19,2.11,2.11,0,0,1-2.35-2.08,2.18,2.18,0,0,1,2.38-2.14C309.6,157.53,310.6,158.81,310.6,161Zm-1-1.38c0-.77-.63-1.49-1.83-1.49a1.52,1.52,0,0,0-1.7,1.51c0,.91.67,1.5,1.75,1.5A1.61,1.61,0,0,0,309.61,159.63Z" style="fill:#fff"></path><path d="M316.65,161c0,2.36-1.29,3.59-3.18,3.59a3.27,3.27,0,0,1-1.65-.37l.29-.58a2.4,2.4,0,0,0,1.35.33c1.5,0,2.46-1,2.46-2.85,0-.16,0-.36,0-.57a2.21,2.21,0,0,1-2.12,1.19,2.11,2.11,0,0,1-2.35-2.08,2.17,2.17,0,0,1,2.38-2.14C315.64,157.53,316.65,158.81,316.65,161Zm-1-1.38c0-.77-.63-1.49-1.83-1.49a1.52,1.52,0,0,0-1.7,1.51c0,.91.67,1.5,1.75,1.5A1.61,1.61,0,0,0,315.66,159.63Z" style="fill:#fff"></path><path d="M322.26,161.37h-1.85v1.8h-.63v-1.8h-1.84v-.59h1.84V159h.63v1.82h1.85Z" style="fill:#fff"></path></g><g id="freepik--Character--inject-18"><g id="freepik--group--inject-18"><path d="M191.3,286.13c3-3.43,17.79-2.13,20.6-1.6s8,3.67,7.83,6.59-12.77,6.55-18.92,5S189.06,288.7,191.3,286.13Z" style="fill:#407BFF"></path><path d="M191.3,286.13c3-3.43,17.79-2.13,20.6-1.6s8,3.67,7.83,6.59-12.77,6.55-18.92,5S189.06,288.7,191.3,286.13Z" style="fill:#fff;opacity:0.2;isolation:isolate"></path><path d="M250.28,282.46s6.27-1.34,6.71-.27,1.82,10.35,1.23,11.81a19.55,19.55,0,0,1-2.52,3.77l1.79,5.9-7,5.45-.81-7.37s-4.59-3-4.39-8S250.28,282.46,250.28,282.46Z" style="fill:#e4897b"></path><path d="M250.28,282.46s6.27-1.34,6.71-.27,1.82,10.35,1.23,11.81a19.55,19.55,0,0,1-2.52,3.77l1.79,5.9-7,5.45-.81-7.37s-4.59-3-4.39-8S250.28,282.46,250.28,282.46Z" style="opacity:0.2;isolation:isolate"></path><path d="M233.81,291.12c4.18,1.86,12.39,20.7,14.27,21.39s1.26-7,1.26-7l8.44-3.3s5.75,16.7,1.74,21c-3.17,3.45-10.15,5.21-25.68-5.73C219.56,307.47,233.81,291.12,233.81,291.12Z" style="fill:#407BFF"></path><path d="M233.81,291.12c4.18,1.86,12.39,20.7,14.27,21.39s1.26-7,1.26-7l8.44-3.3s5.75,16.7,1.74,21c-3.17,3.45-10.15,5.21-25.68-5.73C219.56,307.47,233.81,291.12,233.81,291.12Z" style="opacity:0.1;isolation:isolate"></path><path d="M234.11,290.57c5.42,2.62,14.09,20.8,14.09,20.8l-8.51,14.54a24.44,24.44,0,0,1-10.17-12.75C226.67,304.52,234.11,290.57,234.11,290.57Z" style="fill:#407BFF"></path><path d="M234.11,290.57c5.42,2.62,14.09,20.8,14.09,20.8l-8.51,14.54a24.44,24.44,0,0,1-10.17-12.75C226.67,304.52,234.11,290.57,234.11,290.57Z" style="fill:#fff;opacity:0.6000000000000001;isolation:isolate"></path><path d="M244.8,375.46s84.17-12.08,88.61,6.39c4.7,19.52-62.88,32.69-103.27,34.07s-52-7.49-45.52-57.41l54.48-.13Z" style="fill:#263238"></path><path d="M244.8,375.46s84.17-12.08,88.61,6.39c4.7,19.52-62.88,32.69-103.27,34.07s-52-7.49-45.52-57.41l54.48-.13Z" style="opacity:0.2;isolation:isolate"></path><path d="M320.82,404.09a.26.26,0,0,1-.3,0,.2.2,0,0,1-.07-.25c.13-.45,1.47-4.33,2.82-4.74a.84.84,0,0,1,.81.24,1.37,1.37,0,0,1,.48,1.3,3.58,3.58,0,0,1-1.27,1.83A14.13,14.13,0,0,1,320.82,404.09Zm.35-.75a5.77,5.77,0,0,0,2.87-2.77.88.88,0,0,0-.34-.89.29.29,0,0,0-.32-.09,1,1,0,0,0-.31.18A11.38,11.38,0,0,0,321.17,403.34Z" style="fill:#407BFF"></path><path d="M320.75,404.14a.23.23,0,0,1-.25-.07c-.13-.11-2-2.47-1.69-4.06a1.55,1.55,0,0,1,.65-1,.86.86,0,0,1,1.07-.1c1,.69.86,3.84.38,5l0,.12A.24.24,0,0,1,320.75,404.14Zm-1.06-4.62a1,1,0,0,0-.33.57c-.19,1,.75,2.51,1.25,3.24.31-1.35.21-3.56-.36-4-.06,0-.18-.12-.47.08l-.09.07Z" style="fill:#407BFF"></path><polygon points="291.67 413.98 309.31 413.99 317.78 413.99 318.79 405.08 310.95 404.03 291.82 401.48 291.67 413.98" style="fill:#e4897b"></polygon><path d="M316.88,404l-2.15,10.17a1,1,0,0,0,.82,1.23l5.07.91s6.74,1.71,8.63.51c5.53-3.54,10.85-25.92,8.6-27.58-.82-.6-2.25.31-3,1-2.27,2.32-7.11,8.78-9,10.69-2.24,2.24-6.21,2.31-7.95,2.22A1,1,0,0,0,316.88,404Z" style="fill:#263238"></path><polygon points="291.67 413.98 309.31 413.99 310.95 404.03 291.82 401.48 291.67 413.98" style="opacity:0.2;isolation:isolate"></polygon><path d="M316.88,404l-2.15,10.17a1,1,0,0,0,.82,1.23l5.07.91s6.74,1.71,8.63.51c5.53-3.54,10.85-25.92,8.6-27.58-.82-.6-2.25.31-3,1-2.27,2.32-7.11,8.78-9,10.69-2.24,2.24-6.21,2.31-7.95,2.22A1,1,0,0,0,316.88,404Z" style="fill:#fff;opacity:0.2;isolation:isolate"></path><polygon points="200.81 365.58 183.78 365.81 184.11 360.28 200.81 359.91 200.81 365.58"></polygon><polygon points="234.4 359.19 239.48 359.07 241.3 365.06 234.4 365.14 234.4 359.19"></polygon><polygon points="232.22 359.23 232.22 365.17 203.43 365.55 203.43 359.86 232.22 359.23"></polygon><path d="M215.63,364.13l-.09-2.31a2.29,2.29,0,0,1,2.11-2.43l5.2-.21a2.12,2.12,0,0,1,1.58.62,2.36,2.36,0,0,1,.7,1.62l.09,2.31a2.29,2.29,0,0,1-2.11,2.43l-5.21.22h-.08A2.26,2.26,0,0,1,215.63,364.13Zm7.45,1.06a1.33,1.33,0,0,0,1.22-1.42l-.08-2.31a1.38,1.38,0,0,0-.41-.95,1.2,1.2,0,0,0-.92-.36l-5.21.22a1.34,1.34,0,0,0-1.23,1.41l.09,2.32a1.3,1.3,0,0,0,1.33,1.3Z" style="fill:#fff"></path><path d="M216.52,363.38h2.61a.6.6,0,1,0,0-1.2h-2.61a.6.6,0,0,0,0,1.2Z" style="fill:#fff"></path><path d="M239,418.11a.28.28,0,0,1,.27-.13.21.21,0,0,1,.17.19c.1.46.72,4.52-.29,5.51a.84.84,0,0,1-.82.17,1.37,1.37,0,0,1-1-.93,3.58,3.58,0,0,1,.27-2.21A14.63,14.63,0,0,1,239,418.11Zm0,.82a5.73,5.73,0,0,0-1.26,3.79.86.86,0,0,0,.72.63.29.29,0,0,0,.32-.06,1,1,0,0,0,.19-.31A11.48,11.48,0,0,0,239.08,418.93Z" style="fill:#407BFF"></path><polygon points="265.9 398.23 249.16 403.8 241.12 406.47 242.98 415.25 250.75 413.76 269.7 410.14 265.9 398.23" style="fill:#e4897b"></polygon><path d="M245.15,415.71,244,405.37a1,1,0,0,0-1.17-.9l-5.1.74s-6.93.51-8.34,2.25c-4.13,5.1-2.1,28,.56,28.88,1,.31,2-1,2.48-1.93,1.42-2.91,4-10.57,5.18-13,1.41-2.83,5.15-4.15,6.84-4.61A1,1,0,0,0,245.15,415.71Z" style="fill:#263238"></path><path d="M239.08,418a.21.21,0,0,1,.25,0c.16,0,2.91,1.25,3.38,2.8a1.47,1.47,0,0,1-.12,1.16.86.86,0,0,1-.9.59c-1.19-.15-2.55-3-2.68-4.28l0-.12A.32.32,0,0,1,239.08,418Zm3.08,3.59a1,1,0,0,0,0-.65c-.3-1-1.83-1.88-2.62-2.28.36,1.33,1.47,3.24,2.17,3.33.07,0,.21,0,.37-.29l0-.11Z" style="fill:#407BFF"></path><polygon points="265.9 398.23 249.16 403.8 250.75 413.76 269.7 410.14 265.9 398.23" style="opacity:0.2;isolation:isolate"></polygon><polygon points="253.66 415.32 258.43 415.76 255.58 399.26 250.09 402.14 253.66 415.32" style="fill:#407BFF"></polygon><polygon points="253.66 415.32 258.43 415.76 255.58 399.26 250.09 402.14 253.66 415.32" style="fill:#fff;opacity:0.6000000000000001;isolation:isolate"></polygon><path d="M245.15,415.71,244,405.37a1,1,0,0,0-1.17-.9l-5.1.74s-6.93.51-8.34,2.25c-4.13,5.1-2.1,28,.56,28.88,1,.31,2-1,2.48-1.93,1.42-2.91,4-10.57,5.18-13,1.41-2.83,5.15-4.15,6.84-4.61A1,1,0,0,0,245.15,415.71Z" style="fill:#fff;opacity:0.2;isolation:isolate"></path><path d="M307.71,402.74s-78.31-30.41-102.29-25.33S181.33,395,193.48,406.74s30.32,7.19,30.32,7.19-14.27-8.55-13.27-13.83,10.06,6.79,10.06,6.79,47.33,11.57,86.4,8.52Z" style="fill:#263238"></path><polygon points="308.66 401.47 304.26 399.46 301.73 415.94 307.84 414.93 308.66 401.47" style="fill:#407BFF"></polygon><polygon points="308.66 401.47 304.26 399.46 301.73 415.94 307.84 414.93 308.66 401.47" style="fill:#fff;opacity:0.6000000000000001;isolation:isolate"></polygon><path d="M234.11,290.57s-20.07-11.5-56.57,2.51c0,0,8.54,46.69,6.24,69l55.79-2.2S241,314.2,234.11,290.57Z" style="fill:#407BFF"></path><path d="M234.11,290.57s-20.07-11.5-56.57,2.51c0,0,8.54,46.69,6.24,69l55.79-2.2S241,314.2,234.11,290.57Z" style="fill:#fff;opacity:0.5;isolation:isolate"></path><path d="M239.2,291.68a1,1,0,0,0,1.1,1l10.88-1.18a1.28,1.28,0,0,0,1.11-1.23l.1-21.73a1.1,1.1,0,0,0-1.11-1.14l-10.88,1.18a1.44,1.44,0,0,0-1.1,1.38Z" style="fill:#263238"></path><path d="M240.49,269.68l-.11,21.94a.83.83,0,0,0,1,.93l9.22-1c.62-.07,1.72-.53,1.72-1.15l.11-22c0-.62-1.11-1-1.73-.93l-9.22,1A1.14,1.14,0,0,0,240.49,269.68Z" style="fill:#fff;opacity:0.30000000000000004"></path><path d="M225.63,309.71l10-9.41s-.4-13,.07-14.51,11-2.36,12.11-2.6,2.64,12.63,1.73,14.12-5,3.16-5,3.16l-10.18,14Z" style="fill:#e4897b"></path><path d="M177.19,294.25c5.87-4.84,29,20.81,31.72,22.38s21.64-13,21.64-13l7.1,7.21s-16.42,17.17-26.5,21.23-28.4-13.79-31.33-18.55C172.17,301.11,177.19,294.25,177.19,294.25Z" style="fill:#407BFF"></path><path d="M188.67,289.42s8.61,9.92,20,9.92l8.63,9.17.89-10.7s6.43-8-.89-10.33C204.67,283.49,188.67,289.42,188.67,289.42Z" style="fill:#407BFF"></path><path d="M215.86,291.8c-3-1.56-4.23-3.68-4.52-6a12.74,12.74,0,0,1,.56-5,27.55,27.55,0,0,1,.92-2.69l-12.36-13.71c.47,7.5.15,21-5.59,25.24C204.93,298.86,215.86,291.8,215.86,291.8Z" style="fill:#e4897b"></path><path d="M202.44,271.88c-1.19,8.84,5.49,12.7,8.9,13.89a12.74,12.74,0,0,1,.56-5Z" style="opacity:0.2;isolation:isolate"></path><path d="M229.08,245.41s2.41,13.81-4.83,19.29-7.79-20.29-7.79-20.29Z" style="fill:#263238"></path><path d="M229.08,245.41s2.41,13.81-4.83,19.29-7.79-20.29-7.79-20.29Z" style="fill:#fff;opacity:0.30000000000000004"></path><path d="M203.16,276.18a12.57,12.57,0,0,0,14.53,4.55,14,14,0,0,0,7.85-6.68c.24-.43.44-.88.64-1.34,3.43-8.55,4.26-23.38-4.81-28.73a13.63,13.63,0,0,0-20.59,10.72C199.9,264.62,198.91,270.41,203.16,276.18Z" style="fill:#e4897b"></path><path d="M215.32,259.67c-.17.79.2,1.52.74,1.59s1-.51,1.16-1.31-.21-1.51-.73-1.59S215.45,258.86,215.32,259.67Z" style="fill:#263238"></path><path d="M224.39,261c-.18.79.21,1.51.73,1.59s1-.52,1.17-1.32-.22-1.51-.74-1.59S224.5,260.26,224.39,261Z" style="fill:#263238"></path><path d="M221.45,261a28.8,28.8,0,0,0,2.81,7.43,4.69,4.69,0,0,1-4,.14Z" style="fill:#de5753"></path><path d="M212.94,256.32a.51.51,0,0,0,.49-.11,3.8,3.8,0,0,1,3.24-1.13.49.49,0,0,0,.57-.36.47.47,0,0,0-.36-.57h0a4.72,4.72,0,0,0-4.11,1.37.47.47,0,0,0,0,.67h0A.76.76,0,0,0,212.94,256.32Z" style="fill:#263238"></path><path d="M228.74,258.47a.46.46,0,0,0,.28.06.48.48,0,0,0,.32-.59h0a4.71,4.71,0,0,0-3-3.15.48.48,0,0,0-.59.33h0a.5.5,0,0,0,.33.59h0a3.82,3.82,0,0,1,2.34,2.53A.51.51,0,0,0,228.74,258.47Z" style="fill:#263238"></path><path d="M209.83,243.49l.1,4.42a3.27,3.27,0,0,0-2.05,3.93c1,3.82-1.61,9.31-4.66,11.3,0,0,.08-1.6-1.3-1.36s-1.84,8.57.38,12.78c0,0-3.6-4-5-12.89-1.26-8.25-.85-15,1.11-17.93Z" style="fill:#263238"></path><path d="M209.83,243.49l.1,4.42a3.27,3.27,0,0,0-2.05,3.93c1,3.82-1.61,9.31-4.66,11.3,0,0,.08-1.6-1.3-1.36s-1.84,8.57.38,12.78c0,0-3.6-4-5-12.89-1.26-8.25-.85-15,1.11-17.93Z" style="fill:#fff;opacity:0.30000000000000004"></path><path d="M195.28,262.14a9.44,9.44,0,0,0,4.67,5.53c3,1.51,5.09-1,4.82-4.12-.26-2.79-2.09-7-5.33-7.19S194.38,259.19,195.28,262.14Z" style="fill:#e4897b"></path><path d="M209.93,247.91s16.32,6,20.61-1-6.27-13.79-8.26-13.24,0,2.8,0,2.8-10.23-5-12.35-3.73,2,2.61,2,2.61-18.29-.6-14.65,11.35A18.14,18.14,0,0,1,209.93,247.91Z" style="fill:#263238"></path><path d="M219.41,270.66a5.18,5.18,0,0,1-3.08,3.41,5.4,5.4,0,0,1-1.81.34c-3.29.09-4.38-2.91-2.92-4.49a2.74,2.74,0,0,1,1.25-.76.43.43,0,0,1,.16-.05c2.66-.69,5.37.87,6.17,1.39Z" style="fill:#263238"></path><path d="M216.33,274.07a5.4,5.4,0,0,1-1.81.34c-3.29.09-4.38-2.91-2.92-4.49C213.36,270.57,215.92,271.86,216.33,274.07Z" style="fill:#de5753"></path><path d="M219.18,270.5l-.76.74-5.57-2.08a.43.43,0,0,1,.16-.05C215.67,268.42,218.38,270,219.18,270.5Z" style="fill:#fff"></path><path d="M177.54,293.08c3.74-3.54,25.73,16.75,25.73,16.75l-15.47,18.6S166,304,177.54,293.08Z" style="fill:#407BFF"></path><path d="M177.54,293.08c3.74-3.54,25.73,16.75,25.73,16.75l-15.47,18.6S166,304,177.54,293.08Z" style="fill:#fff;opacity:0.6000000000000001;isolation:isolate"></path><path d="M188.67,289.42l2.63-3.29s5.2,6.48,12,8.24l5.35,5-6.32-.51-1.49,2.61S191.21,296.55,188.67,289.42Z" style="fill:#407BFF"></path><path d="M218.14,297.81v-4.17s.55-6.21-6.24-9.11c0,0,7.78-.17,11.84,9.84h-2.1Z" style="fill:#407BFF"></path><path d="M188.67,289.42l2.63-3.29s5.2,6.48,12,8.24l5.35,5-6.32-.51-1.49,2.61S191.21,296.55,188.67,289.42Z" style="fill:#fff;opacity:0.6000000000000001;isolation:isolate"></path><path d="M218.14,297.81v-4.17s.55-6.21-6.24-9.11c0,0,7.78-.17,11.84,9.84h-2.1Z" style="fill:#fff;opacity:0.6000000000000001;isolation:isolate"></path></g></g></svg>