<svg width="1728" height="988" viewBox="0 0 1728 988" fill="none" xmlns="http://www.w3.org/2000/svg">
<path d="M1728 0H0V987.434H1728V0Z" fill="white"/>
<mask id="mask0_341_118" style="mask-type:luminance" maskUnits="userSpaceOnUse" x="0" y="0" width="1728" height="988">
<path d="M1728 0H0V987.434H1728V0Z" fill="white"/>
</mask>
<g mask="url(#mask0_341_118)">
<path d="M1858.92 1116.9H-130.991V-129.422H1858.92L1858.92 1116.9ZM-128.419 1114.32H1856.35V-126.85H-128.419V1114.32Z" fill="#B3B3B3"/>
<path d="M1857.64 927.739H-129.707V930.311H1857.64V927.739Z" fill="#B3B3B3"/>
<path d="M1857.64 865.559H-129.707V868.13H1857.64V865.559Z" fill="#B3B3B3"/>
<path d="M1857.64 803.379H-129.707V805.951H1857.64V803.379Z" fill="#B3B3B3"/>
<path d="M1857.64 741.165H-129.707V743.737H1857.64V741.165Z" fill="#B3B3B3"/>
<path d="M1857.64 678.983H-129.707V681.554H1857.64V678.983Z" fill="#B3B3B3"/>
<path d="M1857.64 616.81H-129.707V619.381H1857.64V616.81Z" fill="#B3B3B3"/>
<path d="M1857.64 554.627H-129.707V557.199H1857.64V554.627Z" fill="#B3B3B3"/>
<path d="M1857.64 492.446H-129.707V495.018H1857.64V492.446Z" fill="#B3B3B3"/>
<path d="M1857.64 430.23H-129.707V432.802H1857.64V430.23Z" fill="#B3B3B3"/>
<path d="M1857.64 368.08H-129.707V370.651H1857.64V368.08Z" fill="#B3B3B3"/>
<path d="M1857.64 305.874H-129.707V308.445H1857.64V305.874Z" fill="#B3B3B3"/>
<path d="M1857.64 243.659H-129.707V246.231H1857.64V243.659Z" fill="#B3B3B3"/>
<path d="M1857.64 181.508H-129.707V184.08H1857.64V181.508Z" fill="#B3B3B3"/>
<path d="M1857.64 119.296H-129.707V121.868H1857.64V119.296Z" fill="#B3B3B3"/>
<path d="M1857.64 57.1472H-129.707V59.7187H1857.64V57.1472Z" fill="#B3B3B3"/>
<path d="M1678.3 -128.139H1675.73V1115.6H1678.3V-128.139Z" fill="#B3B3B3"/>
<path d="M1618.09 -128.139H1615.52V1115.6H1618.09V-128.139Z" fill="#B3B3B3"/>
<path d="M1557.82 -128.139H1555.25V1115.6H1557.82V-128.139Z" fill="#B3B3B3"/>
<path d="M1497.61 -128.139H1495.04V1115.6H1497.61V-128.139Z" fill="#B3B3B3"/>
<path d="M1437.41 -128.139H1434.84V1115.6H1437.41V-128.139Z" fill="#B3B3B3"/>
<path d="M1377.2 -128.139H1374.63V1115.6H1377.2V-128.139Z" fill="#B3B3B3"/>
<path d="M1316.94 -128.139H1314.37V1115.6H1316.94V-128.139Z" fill="#B3B3B3"/>
<path d="M1256.72 -128.139H1254.15V1115.6H1256.72V-128.139Z" fill="#B3B3B3"/>
<path d="M1196.52 -128.139H1193.95V1115.6H1196.52V-128.139Z" fill="#B3B3B3"/>
<path d="M1136.28 -128.139H1133.71V1115.6H1136.28V-128.139Z" fill="#B3B3B3"/>
<path d="M1076.07 -128.139H1073.5V1115.6H1076.07V-128.139Z" fill="#B3B3B3"/>
<path d="M1015.83 -128.139H1013.26V1115.6H1015.83V-128.139Z" fill="#B3B3B3"/>
<path d="M955.624 -128.139H953.053V1115.6H955.624V-128.139Z" fill="#B3B3B3"/>
<path d="M895.386 -128.139H892.815V1115.6H895.386V-128.139Z" fill="#B3B3B3"/>
<path d="M835.179 -128.139H832.607V1115.6H835.179V-128.139Z" fill="#B3B3B3"/>
<path d="M774.942 -128.139H772.37V1115.6H774.942V-128.139Z" fill="#B3B3B3"/>
<path d="M714.737 -128.139H712.166V1115.6H714.737V-128.139Z" fill="#B3B3B3"/>
<path d="M654.501 -128.139H651.929V1115.6H654.501V-128.139Z" fill="#B3B3B3"/>
<path d="M594.291 -128.139H591.72V1115.6H594.291V-128.139Z" fill="#B3B3B3"/>
<path d="M534.046 -128.139H531.474V1115.6H534.046V-128.139Z" fill="#B3B3B3"/>
<path d="M473.847 -128.139H471.275V1115.6H473.847V-128.139Z" fill="#B3B3B3"/>
<path d="M413.636 -128.139H411.064V1115.6H413.636V-128.139Z" fill="#B3B3B3"/>
<path d="M353.367 -128.139H350.795V1115.6H353.367V-128.139Z" fill="#B3B3B3"/>
<path d="M293.155 -128.139H290.584V1115.6H293.155V-128.139Z" fill="#B3B3B3"/>
<path d="M232.954 -128.139H230.383V1115.6H232.954V-128.139Z" fill="#B3B3B3"/>
<path d="M172.745 -128.139H170.173V1115.6H172.745V-128.139Z" fill="#B3B3B3"/>
<path d="M112.495 -128.139H109.923V1115.6H112.495V-128.139Z" fill="#B3B3B3"/>
<path d="M52.2623 -128.139H49.6909V1115.6H52.2623V-128.139Z" fill="#B3B3B3"/>
</g>
</svg>
